<svg width="13" height="7" viewBox="0 0 13 7" fill="none" xmlns="http://www.w3.org/2000/svg">
<path d="M12.0977 0.156939L6.49943 5.73587L0.901191 0.156939C0.801169 0.057061 0.666897 0.00114502 0.527079 0.00114502C0.387261 0.00114502 0.252989 0.057061 0.152967 0.156939C0.104537 0.205451 0.0660617 0.263353 0.0397955 0.327257C0.0135293 0.391161 0 0.45978 0 0.529097C0 0.598413 0.0135293 0.667032 0.0397955 0.730936C0.0660617 0.794839 0.104537 0.852743 0.152967 0.901254L6.10851 6.83745C6.2131 6.94167 6.35338 7 6.49943 7C6.64548 7 6.78575 6.94167 6.89034 6.83745L12.8459 0.902399C12.8947 0.853852 12.9334 0.795806 12.9599 0.731691C12.9864 0.667575 13 0.598689 13 0.529097C13 0.459504 12.9864 0.390617 12.9599 0.326502C12.9334 0.262386 12.8947 0.204342 12.8459 0.155794C12.7459 0.0559155 12.6116 0 12.4718 0C12.332 0 12.1977 0.0559155 12.0977 0.155794V0.156939Z" fill="#3F4C5C"/>
</svg>
