<svg width="1082" height="69" viewBox="0 0 1082 69" fill="none" xmlns="http://www.w3.org/2000/svg">
<g clip-path="url(#clip0_608_13343)">
<path d="M32.8941 68.1847C32.1273 68.1847 31.3605 68.1511 30.5938 68.1007C32.9546 66.4531 34.6496 64.7383 36.3042 63.074C38.6247 60.7372 41.0259 58.3163 45.2836 56.0132C51.9626 52.3987 59.2672 51.2219 61.1841 50.9529C60.7603 52.6004 58.5609 59.1233 49.0367 64.2172C46.8171 65.4276 40.7838 68.1847 32.8941 68.1847Z" fill="#3F4C5C"/>
<path d="M40.0781 57.5932C43.004 53.1717 44.7797 48.683 45.3245 44.228C50.0664 39.9915 54.8487 37.3689 61.1645 35.6709C60.539 38.697 59.2072 42.6981 58.0368 45.0181C57.3508 46.3799 56.3015 47.8425 55.2926 49.2714C54.7881 49.9943 54.2837 50.7004 53.8599 51.3393C49.5418 52.0285 44.9411 54.1132 40.0781 57.5932Z" fill="#3F4C5C"/>
<path d="M28.7558 67.714C24.2964 62.099 22.1575 55.3912 21.1486 50.7007C19.9379 45.1025 20.4222 39.4874 22.6014 33.5698C24.6394 28.0556 33.8609 15.2284 35.677 12.7571C37.3518 15.1779 45.4231 27.6689 44.2528 40.0422C43.2035 51.2723 37.2711 61.8468 28.7558 67.714Z" fill="#3F4C5C"/>
<path d="M18.8094 46.8005C17.6794 36.9153 23.4101 27.7698 24.6006 26.324C18.3453 17.851 10.5767 11.5299 7.12616 10C6.94456 11.8661 5.77421 16.2371 4.70476 20.1374C4.28102 21.7176 3.87745 23.1803 3.61513 24.2562L2.88871 27.0805C1.27445 33.3008 -0.11786 38.6805 1.01213 45.5396C2.68693 55.8283 11.3233 63.528 25.3068 67.2265L26.679 67.5459C22.6029 62.0317 19.6771 54.332 18.8094 46.8005ZM22.5222 65.6294C5.2294 59.51 1.41569 38.4619 5.2294 23.5669C5.33029 23.2139 0.184816 57.0051 22.8249 65.4109C23.1679 65.5285 23.0267 65.7975 22.5222 65.6294Z" fill="#3F4C5C"/>
<path d="M44.6562 28.5768C44.6562 28.5768 45.8871 26.0214 50.064 24.3907C53.1311 23.1971 54.5033 23.2475 54.5033 23.2475C54.584 27.0805 54.7656 29.535 53.8777 32.9309C53.111 35.873 51.4765 38.7982 45.7257 41.7906C45.7055 41.7906 46.8153 36.0243 44.6562 28.5768Z" fill="#3F4C5C"/>
<path d="M112.596 7.784H116.432V10.08H117.552C119.344 10.08 120.893 10.752 122.2 12.096C123.507 13.4213 124.16 15.3347 124.16 17.836C124.16 20.3933 123.516 22.316 122.228 23.604C120.94 24.8733 119.381 25.508 117.552 25.508H116.432V28H112.596V25.508H111.476C109.647 25.508 108.088 24.8733 106.8 23.604C105.512 22.316 104.868 20.3933 104.868 17.836C104.868 15.3347 105.521 13.4213 106.828 12.096C108.135 10.752 109.684 10.08 111.476 10.08H112.596V7.784ZM112.596 22.512V13.076H111.7C110.804 13.076 110.095 13.5147 109.572 14.392C109.049 15.2507 108.788 16.3987 108.788 17.836C108.788 19.3293 109.04 20.4867 109.544 21.308C110.048 22.1107 110.767 22.512 111.7 22.512H112.596ZM116.432 13.076V22.512H117.328C118.261 22.512 118.98 22.1107 119.484 21.308C119.988 20.4867 120.24 19.3293 120.24 17.836C120.24 16.3987 119.979 15.2507 119.456 14.392C118.933 13.5147 118.224 13.076 117.328 13.076H116.432ZM126.537 7.784H137.345V10.864H130.373V15.568H136.729V18.648H130.373V24.92H137.345V28H126.537V7.784ZM142.236 7.784H153.716V24.92H154.948V32.06H151.252V28H142.88V32.06H139.184V24.92H140.388C141.078 23.3707 141.554 21.8587 141.816 20.384C142.096 18.8907 142.236 16.7907 142.236 14.084V7.784ZM149.88 10.864H146.016V15.456C146.016 17.6587 145.866 19.4507 145.568 20.832C145.288 22.1947 144.83 23.5573 144.196 24.92H149.88V10.864ZM157.189 7.784H167.997V10.864H161.025V15.568H167.381V18.648H161.025V24.92H167.997V28H157.189V7.784ZM174.232 19.768V28H170.396V7.784H177.648C179.253 7.784 180.541 8.35333 181.512 9.492C182.483 10.612 182.968 12.012 182.968 13.692C182.968 15.4093 182.473 16.856 181.484 18.032C180.495 19.1893 179.197 19.768 177.592 19.768H174.232ZM174.232 10.78V16.772H176.164C178.087 16.772 179.048 15.764 179.048 13.748C179.048 11.7693 178.087 10.78 176.164 10.78H174.232ZM183.109 28L188.233 7.784H193.385L197.865 28H193.721L192.769 22.736H188.429L187.225 28H183.109ZM188.905 19.74H192.293L190.753 10.332L188.905 19.74ZM201.339 7.784H213.043V28H209.207V10.864H205.119V18.62C205.119 22.0547 204.792 24.5373 204.139 26.068C203.485 27.5987 202.365 28.364 200.779 28.364C199.845 28.364 199.071 28.28 198.455 28.112V25.284C198.735 25.3773 199.145 25.424 199.687 25.424C200.135 25.424 200.461 25.2747 200.667 24.976C200.872 24.6773 201.031 23.9493 201.143 22.792C201.273 21.6347 201.339 19.8613 201.339 17.472V7.784ZM219.841 18.648V25.116H222.053C223.547 25.116 224.293 24.0707 224.293 21.98C224.293 20.972 224.097 20.1693 223.705 19.572C223.313 18.956 222.763 18.648 222.053 18.648H219.841ZM219.841 7.784V15.568H223.061C224.555 15.568 225.787 16.184 226.757 17.416C227.728 18.648 228.213 20.02 228.213 21.532C228.213 23.5107 227.784 25.088 226.925 26.264C226.085 27.4213 224.909 28 223.397 28H216.005V7.784H219.841ZM234.716 7.784V15.568H239.784V7.784H243.62V28H239.784V18.648H234.716V28H230.88V7.784H234.716ZM246.272 14.336C246.272 9.72533 248.465 7.42 252.852 7.42C254.924 7.42 256.52 7.96133 257.64 9.044C258.778 10.108 259.348 11.872 259.348 14.336V21.672C259.348 24.1173 258.788 25.8627 257.668 26.908C256.548 27.9533 254.942 28.476 252.852 28.476C248.465 28.476 246.272 26.208 246.272 21.672V14.336ZM252.852 10.5C251.078 10.5 250.192 11.6293 250.192 13.888V22.148C250.192 24.3133 251.078 25.396 252.852 25.396C253.673 25.396 254.308 25.1253 254.756 24.584C255.204 24.024 255.428 23.212 255.428 22.148V13.944C255.428 12.8613 255.204 12.0213 254.756 11.424C254.308 10.808 253.673 10.5 252.852 10.5ZM261.998 7.784H272.806V10.864H265.834V15.568H272.19V18.648H265.834V24.92H272.806V28H261.998V7.784ZM281.931 7.784H292.543V10.864H285.767V28H281.931V7.784ZM294.397 14.336C294.397 9.72533 296.59 7.42 300.977 7.42C303.049 7.42 304.645 7.96133 305.765 9.044C306.903 10.108 307.473 11.872 307.473 14.336V21.672C307.473 24.1173 306.913 25.8627 305.793 26.908C304.673 27.9533 303.067 28.476 300.977 28.476C296.59 28.476 294.397 26.208 294.397 21.672V14.336ZM300.977 10.5C299.203 10.5 298.317 11.6293 298.317 13.888V22.148C298.317 24.3133 299.203 25.396 300.977 25.396C301.798 25.396 302.433 25.1253 302.881 24.584C303.329 24.024 303.553 23.212 303.553 22.148V13.944C303.553 12.8613 303.329 12.0213 302.881 11.424C302.433 10.808 301.798 10.5 300.977 10.5ZM322.331 14.364H318.495V13.916C318.495 12.6467 318.317 11.76 317.963 11.256C317.627 10.752 317.048 10.5 316.227 10.5C315.405 10.5 314.808 10.7613 314.435 11.284C314.08 11.788 313.903 12.6653 313.903 13.916V21.896C313.903 23.184 314.08 24.0893 314.435 24.612C314.789 25.1347 315.377 25.396 316.199 25.396C316.983 25.396 317.561 25.1347 317.935 24.612C318.308 24.0707 318.495 23.1653 318.495 21.896V20.804H322.331V21.672C322.331 26.208 320.296 28.476 316.227 28.476C315.013 28.476 313.977 28.2987 313.119 27.944C312.279 27.5893 311.635 27.0853 311.187 26.432C310.757 25.7787 310.449 25.0787 310.263 24.332C310.076 23.5667 309.983 22.6987 309.983 21.728V14.364C309.983 9.73467 312.083 7.42 316.283 7.42C318.224 7.42 319.717 7.94267 320.763 8.988C321.808 10.0147 322.331 11.4707 322.331 13.356V14.364ZM323.822 7.784H328.134L331.242 18.508L334.35 7.784H338.55L333.062 24.136C332.539 25.704 331.951 26.824 331.298 27.496C330.663 28.1493 329.87 28.476 328.918 28.476C328.096 28.476 327.322 28.3547 326.594 28.112V25.172C327.191 25.3213 327.546 25.396 327.658 25.396C328.423 25.396 328.992 24.8547 329.366 23.772L323.822 7.784ZM341.408 7.784H352.888V24.92H354.12V32.06H350.424V28H342.052V32.06H338.356V24.92H339.56C340.25 23.3707 340.726 21.8587 340.988 20.384C341.268 18.8907 341.408 16.7907 341.408 14.084V7.784ZM349.052 10.864H345.188V15.456C345.188 17.6587 345.038 19.4507 344.74 20.832C344.46 22.1947 344.002 23.5573 343.368 24.92H349.052V10.864ZM355.101 28L360.225 7.784H365.377L369.857 28H365.713L364.761 22.736H360.421L359.217 28H355.101ZM360.897 19.74H364.285L362.745 10.332L360.897 19.74ZM375.291 19.768V28H371.455V7.784H378.707C380.312 7.784 381.6 8.35333 382.571 9.492C383.541 10.612 384.027 12.012 384.027 13.692C384.027 15.4093 383.532 16.856 382.543 18.032C381.553 19.1893 380.256 19.768 378.651 19.768H375.291ZM375.291 10.78V16.772H377.223C379.145 16.772 380.107 15.764 380.107 13.748C380.107 11.7693 379.145 10.78 377.223 10.78H375.291ZM398.893 14.364H395.057V13.916C395.057 12.6467 394.88 11.76 394.525 11.256C394.189 10.752 393.61 10.5 392.789 10.5C391.968 10.5 391.37 10.7613 390.997 11.284C390.642 11.788 390.465 12.6653 390.465 13.916V21.896C390.465 23.184 390.642 24.0893 390.997 24.612C391.352 25.1347 391.94 25.396 392.761 25.396C393.545 25.396 394.124 25.1347 394.497 24.612C394.87 24.0707 395.057 23.1653 395.057 21.896V20.804H398.893V21.672C398.893 26.208 396.858 28.476 392.789 28.476C391.576 28.476 390.54 28.2987 389.681 27.944C388.841 27.5893 388.197 27.0853 387.749 26.432C387.32 25.7787 387.012 25.0787 386.825 24.332C386.638 23.5667 386.545 22.6987 386.545 21.728V14.364C386.545 9.73467 388.645 7.42 392.845 7.42C394.786 7.42 396.28 7.94267 397.325 8.988C398.37 10.0147 398.893 11.4707 398.893 13.356V14.364ZM409.26 10.864V28H405.424V10.864H400.664V7.784H414.02V10.864H409.26ZM419.752 10.668V15.988H421.768C423.354 15.988 424.148 15.0733 424.148 13.244C424.148 12.3667 423.97 11.7227 423.616 11.312C423.261 10.8827 422.664 10.668 421.824 10.668H419.752ZM419.752 18.872V25.116H422.216C422.944 25.116 423.476 24.8733 423.812 24.388C424.166 23.9027 424.344 23.1 424.344 21.98C424.344 19.908 423.634 18.872 422.216 18.872H419.752ZM415.916 28V7.784H423C424.68 7.784 425.93 8.25067 426.752 9.184C427.573 10.1173 427.984 11.2933 427.984 12.712C427.984 13.7387 427.732 14.6907 427.228 15.568C426.724 16.4453 426.07 16.968 425.268 17.136C426.276 17.5467 427.022 18.144 427.508 18.928C428.012 19.6933 428.264 20.72 428.264 22.008C428.264 23.8187 427.872 25.2747 427.088 26.376C426.304 27.4587 425.156 28 423.644 28H415.916ZM430.681 7.784H441.489V10.864H434.517V15.568H440.873V18.648H434.517V24.92H441.489V28H430.681V7.784ZM447.724 7.784V15.568H452.792V7.784H456.628V28H452.792V18.648H447.724V28H443.888V7.784H447.724ZM463.256 7.784V15.568H468.324V7.784H472.16V28H468.324V18.648H463.256V28H459.42V7.784H463.256ZM474.811 14.336C474.811 9.72533 477.004 7.42 481.391 7.42C483.463 7.42 485.059 7.96133 486.179 9.044C487.317 10.108 487.887 11.872 487.887 14.336V21.672C487.887 24.1173 487.327 25.8627 486.207 26.908C485.087 27.9533 483.481 28.476 481.391 28.476C477.004 28.476 474.811 26.208 474.811 21.672V14.336ZM481.391 10.5C479.617 10.5 478.731 11.6293 478.731 13.888V22.148C478.731 24.3133 479.617 25.396 481.391 25.396C482.212 25.396 482.847 25.1253 483.295 24.584C483.743 24.024 483.967 23.212 483.967 22.148V13.944C483.967 12.8613 483.743 12.0213 483.295 11.424C482.847 10.808 482.212 10.5 481.391 10.5ZM490.537 7.784H501.345V10.864H494.373V15.568H500.729V18.648H494.373V24.92H501.345V28H490.537V7.784ZM514.306 18.648V25.116H516.518C518.012 25.116 518.758 24.0707 518.758 21.98C518.758 20.972 518.562 20.1693 518.17 19.572C517.778 18.956 517.228 18.648 516.518 18.648H514.306ZM510.47 7.784H521.194V10.668H514.306V15.568H517.526C519.02 15.568 520.252 16.184 521.222 17.416C522.193 18.648 522.678 20.02 522.678 21.532C522.678 23.5107 522.249 25.088 521.39 26.264C520.55 27.4213 519.374 28 517.862 28H510.47V7.784ZM529.181 7.784V15.568H532.653V14.14C532.653 9.66 534.884 7.42 539.345 7.42C541.436 7.42 543.06 7.94267 544.217 8.988C545.375 10.0147 545.953 11.7507 545.953 14.196V21.588C545.953 26.18 543.751 28.476 539.345 28.476C534.884 28.476 532.653 26.1987 532.653 21.644V18.648H529.181V28H525.345V7.784H529.181ZM536.573 21.952C536.573 23.0347 536.807 23.884 537.273 24.5C537.759 25.0973 538.449 25.396 539.345 25.396C540.167 25.396 540.82 25.088 541.305 24.472C541.791 23.856 542.033 23.016 542.033 21.952V13.832C542.033 12.7867 541.791 11.9747 541.305 11.396C540.839 10.7987 540.185 10.5 539.345 10.5C538.449 10.5 537.759 10.7893 537.273 11.368C536.807 11.9467 536.573 12.768 536.573 13.832V21.952ZM551.107 7.784H562.587V24.92H563.819V32.06H560.123V28H551.751V32.06H548.055V24.92H549.259C549.95 23.3707 550.426 21.8587 550.687 20.384C550.967 18.8907 551.107 16.7907 551.107 14.084V7.784ZM558.751 10.864H554.887V15.456C554.887 17.6587 554.738 19.4507 554.439 20.832C554.159 22.1947 553.702 23.5573 553.067 24.92H558.751V10.864ZM565.108 7.784H569.448L574.096 16.548V7.784H577.932V16.548L582.58 7.784H586.92L581.796 16.548L587.088 28H582.804L579.444 19.936L577.932 21.924V28H574.096V21.924L572.584 19.936L569.224 28H564.94L570.232 16.548L565.108 7.784ZM588.92 7.784H599.728V10.864H592.756V15.568H599.112V18.648H592.756V24.92H599.728V28H588.92V7.784ZM609.827 10.864V28H605.991V10.864H601.231V7.784H614.587V10.864H609.827ZM620.318 7.784V15.568H625.386V7.784H629.222V28H625.386V18.648H620.318V28H616.482V7.784H620.318ZM631.873 14.336C631.873 9.72533 634.067 7.42 638.453 7.42C640.525 7.42 642.121 7.96133 643.241 9.044C644.38 10.108 644.949 11.872 644.949 14.336V21.672C644.949 24.1173 644.389 25.8627 643.269 26.908C642.149 27.9533 640.544 28.476 638.453 28.476C634.067 28.476 631.873 26.208 631.873 21.672V14.336ZM638.453 10.5C636.68 10.5 635.793 11.6293 635.793 13.888V22.148C635.793 24.3133 636.68 25.396 638.453 25.396C639.275 25.396 639.909 25.1253 640.357 24.584C640.805 24.024 641.029 23.212 641.029 22.148V13.944C641.029 12.8613 640.805 12.0213 640.357 11.424C639.909 10.808 639.275 10.5 638.453 10.5ZM647.599 7.784H658.407V10.864H651.435V15.568H657.791V18.648H651.435V24.92H658.407V28H647.599V7.784ZM666.357 7.784H670.669L673.777 18.508L676.885 7.784H681.085L675.597 24.136C675.074 25.704 674.486 26.824 673.833 27.496C673.198 28.1493 672.405 28.476 671.453 28.476C670.631 28.476 669.857 28.3547 669.129 28.112V25.172C669.726 25.3213 670.081 25.396 670.193 25.396C670.958 25.396 671.527 24.8547 671.901 23.772L666.357 7.784ZM682.709 7.784H686.545V13.3C686.545 15.316 687.506 16.324 689.429 16.324C690.231 16.324 690.875 16.2587 691.361 16.128V7.784H695.197V28H691.361V19.124C690.446 19.3107 689.363 19.404 688.113 19.404C686.489 19.404 685.182 18.8907 684.193 17.864C683.203 16.8373 682.709 15.484 682.709 13.804V7.784ZM702.049 19.768V28H698.213V7.784H705.465C707.07 7.784 708.358 8.35333 709.329 9.492C710.299 10.612 710.785 12.012 710.785 13.692C710.785 15.4093 710.29 16.856 709.301 18.032C708.311 19.1893 707.014 19.768 705.409 19.768H702.049ZM702.049 10.78V16.772H703.981C705.903 16.772 706.865 15.764 706.865 13.748C706.865 11.7693 705.903 10.78 703.981 10.78H702.049ZM713.443 7.784H724.251V10.864H717.279V15.568H723.635V18.648H717.279V24.92H724.251V28H713.443V7.784ZM725.698 7.784H730.038L734.686 16.548V7.784H738.522V16.548L743.17 7.784H747.51L742.386 16.548L747.678 28H743.394L740.034 19.936L738.522 21.924V28H734.686V21.924L733.174 19.936L729.814 28H725.53L730.822 16.548L725.698 7.784ZM752.001 7.784H763.481V24.92H764.713V32.06H761.017V28H752.645V32.06H748.949V24.92H750.153C750.844 23.3707 751.32 21.8587 751.581 20.384C751.861 18.8907 752.001 16.7907 752.001 14.084V7.784ZM759.645 10.864H755.781V15.456C755.781 17.6587 755.632 19.4507 755.333 20.832C755.053 22.1947 754.596 23.5573 753.961 24.92H759.645V10.864ZM766.955 7.784H777.763V10.864H770.791V15.568H777.147V18.648H770.791V24.92H777.763V28H766.955V7.784ZM783.998 7.784V15.568H789.066V7.784H792.902V28H789.066V18.648H783.998V28H780.162V7.784H783.998ZM795.693 7.784H799.277V15.344C799.277 18.648 799.118 21.028 798.801 22.484H798.829L804.429 7.784H808.573V28H804.989V20.356C804.989 17.1453 805.148 14.8027 805.465 13.328H805.437L799.837 28H795.693V7.784ZM811.361 7.784H822.169V10.864H815.197V15.568H821.553V18.648H815.197V24.92H822.169V28H811.361V7.784ZM834.963 11.536V15.12H831.463V11.144C831.463 10.36 831.743 9.62267 832.303 8.932C832.881 8.24133 833.572 7.896 834.375 7.896H834.599V9.212C833.46 9.212 832.891 9.98667 832.891 11.536H834.963ZM840.507 11.536V15.12H837.007V11.144C837.007 10.36 837.287 9.62267 837.847 8.932C838.425 8.24133 839.116 7.896 839.919 7.896H840.143V9.212C839.004 9.212 838.435 9.98667 838.435 11.536H840.507ZM843.326 7.784H853.938V10.864H847.162V28H843.326V7.784ZM855.791 14.336C855.791 9.72533 857.985 7.42 862.371 7.42C864.443 7.42 866.039 7.96133 867.159 9.044C868.298 10.108 868.867 11.872 868.867 14.336V21.672C868.867 24.1173 868.307 25.8627 867.187 26.908C866.067 27.9533 864.462 28.476 862.371 28.476C857.985 28.476 855.791 26.208 855.791 21.672V14.336ZM862.371 10.5C860.598 10.5 859.711 11.6293 859.711 13.888V22.148C859.711 24.3133 860.598 25.396 862.371 25.396C863.193 25.396 863.827 25.1253 864.275 24.584C864.723 24.024 864.947 23.212 864.947 22.148V13.944C864.947 12.8613 864.723 12.0213 864.275 11.424C863.827 10.808 863.193 10.5 862.371 10.5ZM883.725 14.364H879.889V13.916C879.889 12.6467 879.712 11.76 879.357 11.256C879.021 10.752 878.443 10.5 877.621 10.5C876.8 10.5 876.203 10.7613 875.829 11.284C875.475 11.788 875.297 12.6653 875.297 13.916V21.896C875.297 23.184 875.475 24.0893 875.829 24.612C876.184 25.1347 876.772 25.396 877.593 25.396C878.377 25.396 878.956 25.1347 879.329 24.612C879.703 24.0707 879.889 23.1653 879.889 21.896V20.804H883.725V21.672C883.725 26.208 881.691 28.476 877.621 28.476C876.408 28.476 875.372 28.2987 874.513 27.944C873.673 27.5893 873.029 27.0853 872.581 26.432C872.152 25.7787 871.844 25.0787 871.657 24.332C871.471 23.5667 871.377 22.6987 871.377 21.728V14.364C871.377 9.73467 873.477 7.42 877.677 7.42C879.619 7.42 881.112 7.94267 882.157 8.988C883.203 10.0147 883.725 11.4707 883.725 13.356V14.364ZM885.216 7.784H889.528L892.636 18.508L895.744 7.784H899.944L894.456 24.136C893.934 25.704 893.346 26.824 892.692 27.496C892.058 28.1493 891.264 28.476 890.312 28.476C889.491 28.476 888.716 28.3547 887.988 28.112V25.172C888.586 25.3213 888.94 25.396 889.052 25.396C889.818 25.396 890.387 24.8547 890.76 23.772L885.216 7.784ZM902.802 7.784H914.282V24.92H915.514V32.06H911.818V28H903.446V32.06H899.75V24.92H900.954C901.645 23.3707 902.121 21.8587 902.382 20.384C902.662 18.8907 902.802 16.7907 902.802 14.084V7.784ZM910.446 10.864H906.582V15.456C906.582 17.6587 906.433 19.4507 906.134 20.832C905.854 22.1947 905.397 23.5573 904.762 24.92H910.446V10.864ZM916.495 28L921.619 7.784H926.771L931.251 28H927.107L926.155 22.736H921.815L920.611 28H916.495ZM922.291 19.74H925.679L924.139 10.332L922.291 19.74ZM936.685 19.768V28H932.849V7.784H940.101C941.707 7.784 942.995 8.35333 943.965 9.492C944.936 10.612 945.421 12.012 945.421 13.692C945.421 15.4093 944.927 16.856 943.937 18.032C942.948 19.1893 941.651 19.768 940.045 19.768H936.685ZM936.685 10.78V16.772H938.617C940.54 16.772 941.501 15.764 941.501 13.748C941.501 11.7693 940.54 10.78 938.617 10.78H936.685ZM960.288 14.364H956.452V13.916C956.452 12.6467 956.274 11.76 955.92 11.256C955.584 10.752 955.005 10.5 954.184 10.5C953.362 10.5 952.765 10.7613 952.392 11.284C952.037 11.788 951.86 12.6653 951.86 13.916V21.896C951.86 23.184 952.037 24.0893 952.392 24.612C952.746 25.1347 953.334 25.396 954.156 25.396C954.94 25.396 955.518 25.1347 955.892 24.612C956.265 24.0707 956.452 23.1653 956.452 21.896V20.804H960.288V21.672C960.288 26.208 958.253 28.476 954.184 28.476C952.97 28.476 951.934 28.2987 951.076 27.944C950.236 27.5893 949.592 27.0853 949.144 26.432C948.714 25.7787 948.406 25.0787 948.22 24.332C948.033 23.5667 947.94 22.6987 947.94 21.728V14.364C947.94 9.73467 950.04 7.42 954.24 7.42C956.181 7.42 957.674 7.94267 958.72 8.988C959.765 10.0147 960.288 11.4707 960.288 13.356V14.364ZM970.655 10.864V28H966.819V10.864H962.059V7.784H975.415V10.864H970.655ZM981.146 10.668V15.988H983.162C984.749 15.988 985.542 15.0733 985.542 13.244C985.542 12.3667 985.365 11.7227 985.01 11.312C984.655 10.8827 984.058 10.668 983.218 10.668H981.146ZM981.146 18.872V25.116H983.61C984.338 25.116 984.87 24.8733 985.206 24.388C985.561 23.9027 985.738 23.1 985.738 21.98C985.738 19.908 985.029 18.872 983.61 18.872H981.146ZM977.31 28V7.784H984.394C986.074 7.784 987.325 8.25067 988.146 9.184C988.967 10.1173 989.378 11.2933 989.378 12.712C989.378 13.7387 989.126 14.6907 988.622 15.568C988.118 16.4453 987.465 16.968 986.662 17.136C987.67 17.5467 988.417 18.144 988.902 18.928C989.406 19.6933 989.658 20.72 989.658 22.008C989.658 23.8187 989.266 25.2747 988.482 26.376C987.698 27.4587 986.55 28 985.038 28H977.31ZM992.076 7.784H1002.88V10.864H995.912V15.568H1002.27V18.648H995.912V24.92H1002.88V28H992.076V7.784ZM1009.12 7.784V15.568H1014.19V7.784H1018.02V28H1014.19V18.648H1009.12V28H1005.28V7.784H1009.12ZM1024.65 7.784V15.568H1029.72V7.784H1033.55V28H1029.72V18.648H1024.65V28H1020.81V7.784H1024.65ZM1040.18 18.648V25.116H1042.39C1043.89 25.116 1044.63 24.0707 1044.63 21.98C1044.63 20.972 1044.44 20.1693 1044.05 19.572C1043.65 18.956 1043.1 18.648 1042.39 18.648H1040.18ZM1040.18 7.784V15.568H1043.4C1044.89 15.568 1046.13 16.184 1047.1 17.416C1048.07 18.648 1048.55 20.02 1048.55 21.532C1048.55 23.5107 1048.12 25.088 1047.27 26.264C1046.43 27.4213 1045.25 28 1043.74 28H1036.35V7.784H1040.18ZM1055.3 7.784V28H1051.47V7.784H1055.3ZM1058.11 7.784H1061.69V15.372C1061.69 18.6573 1061.54 21.028 1061.22 22.484H1061.25L1066.85 7.784H1070.99V28H1067.41V20.328C1067.41 17.136 1067.57 14.8027 1067.88 13.328H1067.85L1062.25 28H1058.11V7.784ZM1060.41 2.296H1062.39C1062.39 3.04267 1062.57 3.612 1062.93 4.004C1063.28 4.396 1063.78 4.592 1064.41 4.592C1065.05 4.592 1065.54 4.396 1065.89 4.004C1066.25 3.612 1066.43 3.04267 1066.43 2.296H1068.41C1068.41 5.096 1067.06 6.496 1064.35 6.496C1061.72 6.496 1060.41 5.096 1060.41 2.296ZM109.236 45.784V53.568H114.304V45.784H118.14V66H114.304V56.648H109.236V66H105.4V45.784H109.236ZM119.671 66L124.795 45.784H129.947L134.427 66H130.283L129.331 60.736H124.991L123.787 66H119.671ZM125.467 57.74H128.855L127.315 48.332L125.467 57.74ZM134.001 45.784H138.313L141.421 56.508L144.529 45.784H148.729L143.241 62.136C142.719 63.704 142.131 64.824 141.477 65.496C140.843 66.1493 140.049 66.476 139.097 66.476C138.276 66.476 137.501 66.3547 136.773 66.112V63.172C137.371 63.3213 137.725 63.396 137.837 63.396C138.603 63.396 139.172 62.8547 139.545 61.772L134.001 45.784ZM150.353 45.784H154.189V51.3C154.189 53.316 155.15 54.324 157.073 54.324C157.876 54.324 158.52 54.2587 159.005 54.128V45.784H162.841V66H159.005V57.124C158.09 57.3107 157.008 57.404 155.757 57.404C154.133 57.404 152.826 56.8907 151.837 55.864C150.848 54.8373 150.353 53.484 150.353 51.804V45.784ZM169.693 45.784V53.568H174.761V45.784H178.597V66H174.761V56.648H169.693V66H165.857V45.784H169.693ZM185.224 56.648V63.116H187.436C188.93 63.116 189.676 62.0707 189.676 59.98C189.676 58.972 189.48 58.1693 189.088 57.572C188.696 56.956 188.146 56.648 187.436 56.648H185.224ZM185.224 45.784V53.568H188.444C189.938 53.568 191.17 54.184 192.14 55.416C193.111 56.648 193.596 58.02 193.596 59.532C193.596 61.5107 193.167 63.088 192.308 64.264C191.468 65.4213 190.292 66 188.78 66H181.388V45.784H185.224ZM200.344 45.784V66H196.508V45.784H200.344ZM203.154 45.784H206.738V53.372C206.738 56.6573 206.579 59.028 206.262 60.484H206.29L211.89 45.784H216.034V66H212.45V58.328C212.45 55.136 212.609 52.8027 212.926 51.328H212.898L207.298 66H203.154V45.784ZM205.45 40.296H207.438C207.438 41.0427 207.615 41.612 207.97 42.004C208.325 42.396 208.819 42.592 209.454 42.592C210.089 42.592 210.583 42.396 210.938 42.004C211.293 41.612 211.47 41.0427 211.47 40.296H213.458C213.458 43.096 212.105 44.496 209.398 44.496C206.766 44.496 205.45 43.096 205.45 40.296ZM229.384 45.784V62.92H234.452V45.784H238.288V62.92H239.52V70.088H235.936V66H225.548V45.784H229.384ZM241.709 45.784H252.517V48.864H245.545V53.568H251.901V56.648H245.545V62.92H252.517V66H241.709V45.784ZM258.752 45.784V53.568H263.82V45.784H267.656V66H263.82V56.648H258.752V66H254.916V45.784H258.752ZM278.147 48.864V66H274.311V48.864H269.551V45.784H282.907V48.864H278.147ZM288.638 57.768V66H284.802V45.784H292.054C293.66 45.784 294.948 46.3533 295.918 47.492C296.889 48.612 297.374 50.012 297.374 51.692C297.374 53.4093 296.88 54.856 295.89 56.032C294.901 57.1893 293.604 57.768 291.998 57.768H288.638ZM288.638 48.78V54.772H290.57C292.493 54.772 293.454 53.764 293.454 51.748C293.454 49.7693 292.493 48.78 290.57 48.78H288.638ZM309.251 45.784H320.731V62.92H321.963V70.06H318.267V66H309.895V70.06H306.199V62.92H307.403C308.094 61.3707 308.57 59.8587 308.831 58.384C309.111 56.8907 309.251 54.7907 309.251 52.084V45.784ZM316.895 48.864H313.031V53.456C313.031 55.6587 312.882 57.4507 312.583 58.832C312.303 60.1947 311.846 61.5573 311.211 62.92H316.895V48.864ZM324.205 45.784H335.013V48.864H328.041V53.568H334.397V56.648H328.041V62.92H335.013V66H324.205V45.784ZM341.248 57.768V66H337.412V45.784H344.664C346.269 45.784 347.557 46.3533 348.528 47.492C349.498 48.612 349.984 50.012 349.984 51.692C349.984 53.4093 349.489 54.856 348.5 56.032C347.51 57.1893 346.213 57.768 344.608 57.768H341.248ZM341.248 48.78V54.772H343.18C345.102 54.772 346.064 53.764 346.064 51.748C346.064 49.7693 345.102 48.78 343.18 48.78H341.248ZM352.642 45.784H358.774L361.462 58.916L364.15 45.784H370.282V66H366.698V47.688H366.67L362.834 66H360.09L356.254 47.716H356.226V66H352.642V45.784ZM371.835 66L376.959 45.784H382.111L386.591 66H382.447L381.495 60.736H377.155L375.951 66H371.835ZM377.631 57.74H381.019L379.479 48.332L377.631 57.74ZM394.85 48.864V66H391.014V48.864H386.254V45.784H399.61V48.864H394.85ZM401.365 52.336C401.365 47.7253 403.559 45.42 407.945 45.42C410.017 45.42 411.613 45.9613 412.733 47.044C413.872 48.108 414.441 49.872 414.441 52.336V59.672C414.441 62.1173 413.881 63.8627 412.761 64.908C411.641 65.9533 410.036 66.476 407.945 66.476C403.559 66.476 401.365 64.208 401.365 59.672V52.336ZM407.945 48.5C406.172 48.5 405.285 49.6293 405.285 51.888V60.148C405.285 62.3133 406.172 63.396 407.945 63.396C408.767 63.396 409.401 63.1253 409.849 62.584C410.297 62.024 410.521 61.212 410.521 60.148V51.944C410.521 50.8613 410.297 50.0213 409.849 49.424C409.401 48.808 408.767 48.5 407.945 48.5ZM420.927 48.668V53.988H422.943C424.53 53.988 425.323 53.0733 425.323 51.244C425.323 50.3667 425.146 49.7227 424.791 49.312C424.437 48.8827 423.839 48.668 422.999 48.668H420.927ZM420.927 56.872V63.116H423.391C424.119 63.116 424.651 62.8733 424.987 62.388C425.342 61.9027 425.519 61.1 425.519 59.98C425.519 57.908 424.81 56.872 423.391 56.872H420.927ZM417.091 66V45.784H424.175C425.855 45.784 427.106 46.2507 427.927 47.184C428.749 48.1173 429.159 49.2933 429.159 50.712C429.159 51.7387 428.907 52.6907 428.403 53.568C427.899 54.4453 427.246 54.968 426.443 55.136C427.451 55.5467 428.198 56.144 428.683 56.928C429.187 57.6933 429.439 58.72 429.439 60.008C429.439 61.8187 429.047 63.2747 428.263 64.376C427.479 65.4587 426.331 66 424.819 66H417.091ZM431.857 45.784H442.665V48.864H435.693V53.568H442.049V56.648H435.693V62.92H442.665V66H431.857V45.784ZM448.9 45.784V53.568H453.968V45.784H457.804V66H453.968V56.648H448.9V66H445.064V45.784H448.9ZM460.595 45.784H471.403V48.864H464.431V53.568H470.787V56.648H464.431V62.92H471.403V66H460.595V45.784ZM477.638 57.768V66H473.802V45.784H481.054C482.66 45.784 483.948 46.3533 484.918 47.492C485.889 48.612 486.374 50.012 486.374 51.692C486.374 53.4093 485.88 54.856 484.89 56.032C483.901 57.1893 482.604 57.768 480.998 57.768H477.638ZM477.638 48.78V54.772H479.57C481.493 54.772 482.454 53.764 482.454 51.748C482.454 49.7693 481.493 48.78 479.57 48.78H477.638ZM488.893 52.336C488.893 47.7253 491.086 45.42 495.473 45.42C497.545 45.42 499.141 45.9613 500.261 47.044C501.399 48.108 501.969 49.872 501.969 52.336V59.672C501.969 62.1173 501.409 63.8627 500.289 64.908C499.169 65.9533 497.563 66.476 495.473 66.476C491.086 66.476 488.893 64.208 488.893 59.672V52.336ZM495.473 48.5C493.699 48.5 492.813 49.6293 492.813 51.888V60.148C492.813 62.3133 493.699 63.396 495.473 63.396C496.294 63.396 496.929 63.1253 497.377 62.584C497.825 62.024 498.049 61.212 498.049 60.148V51.944C498.049 50.8613 497.825 50.0213 497.377 49.424C496.929 48.808 496.294 48.5 495.473 48.5ZM506.495 45.784H518.199V66H514.363V48.864H510.275V56.62C510.275 60.0547 509.948 62.5373 509.295 64.068C508.641 65.5987 507.521 66.364 505.935 66.364C505.001 66.364 504.227 66.28 503.611 66.112V63.284C503.891 63.3773 504.301 63.424 504.843 63.424C505.291 63.424 505.617 63.2747 505.823 62.976C506.028 62.6773 506.187 61.9493 506.299 60.792C506.429 59.6347 506.495 57.8613 506.495 55.472V45.784ZM521.022 52.336C521.022 47.7253 523.215 45.42 527.602 45.42C529.674 45.42 531.27 45.9613 532.39 47.044C533.528 48.108 534.098 49.872 534.098 52.336V59.672C534.098 62.1173 533.538 63.8627 532.418 64.908C531.298 65.9533 529.692 66.476 527.602 66.476C523.215 66.476 521.022 64.208 521.022 59.672V52.336ZM527.602 48.5C525.828 48.5 524.942 49.6293 524.942 51.888V60.148C524.942 62.3133 525.828 63.396 527.602 63.396C528.423 63.396 529.058 63.1253 529.506 62.584C529.954 62.024 530.178 61.212 530.178 60.148V51.944C530.178 50.8613 529.954 50.0213 529.506 49.424C529.058 48.808 528.423 48.5 527.602 48.5ZM536.748 45.784H547.36V48.864H540.584V66H536.748V45.784ZM549.353 45.784H552.937V53.344C552.937 56.648 552.778 59.028 552.461 60.484H552.489L558.089 45.784H562.233V66H558.649V58.356C558.649 55.1453 558.808 52.8027 559.125 51.328H559.097L553.497 66H549.353V45.784ZM565.021 45.784H568.605V53.344C568.605 56.648 568.446 59.028 568.129 60.484H568.157L573.757 45.784H577.901V66H574.317V58.356C574.317 55.1453 574.476 52.8027 574.793 51.328H574.765L569.165 66H565.021V45.784ZM587.416 45.784H591V53.344C591 56.648 590.841 59.028 590.524 60.484H590.552L596.152 45.784H600.296V66H596.712V58.356C596.712 55.1453 596.87 52.8027 597.188 51.328H597.16L591.56 66H587.416V45.784ZM613.646 45.784V54.548L618.294 45.784H622.634L617.51 54.548L622.802 66H618.518L615.158 57.936L613.646 59.924V66H609.81V45.784H613.646ZM624.272 52.336C624.272 47.7253 626.465 45.42 630.852 45.42C632.924 45.42 634.52 45.9613 635.64 47.044C636.778 48.108 637.348 49.872 637.348 52.336V59.672C637.348 62.1173 636.788 63.8627 635.668 64.908C634.548 65.9533 632.942 66.476 630.852 66.476C626.465 66.476 624.272 64.208 624.272 59.672V52.336ZM630.852 48.5C629.078 48.5 628.192 49.6293 628.192 51.888V60.148C628.192 62.3133 629.078 63.396 630.852 63.396C631.673 63.396 632.308 63.1253 632.756 62.584C633.204 62.024 633.428 61.212 633.428 60.148V51.944C633.428 50.8613 633.204 50.0213 632.756 49.424C632.308 48.808 631.673 48.5 630.852 48.5ZM652.206 52.364H648.37V51.916C648.37 50.6467 648.192 49.76 647.838 49.256C647.502 48.752 646.923 48.5 646.102 48.5C645.28 48.5 644.683 48.7613 644.31 49.284C643.955 49.788 643.778 50.6653 643.778 51.916V59.896C643.778 61.184 643.955 62.0893 644.31 62.612C644.664 63.1347 645.252 63.396 646.074 63.396C646.858 63.396 647.436 63.1347 647.81 62.612C648.183 62.0707 648.37 61.1653 648.37 59.896V58.804H652.206V59.672C652.206 64.208 650.171 66.476 646.102 66.476C644.888 66.476 643.852 66.2987 642.994 65.944C642.154 65.5893 641.51 65.0853 641.062 64.432C640.632 63.7787 640.324 63.0787 640.138 62.332C639.951 61.5667 639.858 60.6987 639.858 59.728V52.364C639.858 47.7347 641.958 45.42 646.158 45.42C648.099 45.42 649.592 45.9427 650.638 46.988C651.683 48.0147 652.206 49.4707 652.206 51.356V52.364ZM654.873 45.784H661.005L663.693 58.916L666.381 45.784H672.513V66H668.929V47.688H668.901L665.065 66H662.321L658.485 47.716H658.457V66H654.873V45.784ZM675.326 45.784H686.134V48.864H679.162V53.568H685.518V56.648H679.162V62.92H686.134V66H675.326V45.784ZM696.233 48.864V66H692.397V48.864H687.637V45.784H700.993V48.864H696.233ZM702.748 52.336C702.748 47.7253 704.942 45.42 709.328 45.42C711.4 45.42 712.996 45.9613 714.116 47.044C715.255 48.108 715.824 49.872 715.824 52.336V59.672C715.824 62.1173 715.264 63.8627 714.144 64.908C713.024 65.9533 711.419 66.476 709.328 66.476C704.942 66.476 702.748 64.208 702.748 59.672V52.336ZM709.328 48.5C707.555 48.5 706.668 49.6293 706.668 51.888V60.148C706.668 62.3133 707.555 63.396 709.328 63.396C710.15 63.396 710.784 63.1253 711.232 62.584C711.68 62.024 711.904 61.212 711.904 60.148V51.944C711.904 50.8613 711.68 50.0213 711.232 49.424C710.784 48.808 710.15 48.5 709.328 48.5ZM720.35 45.784H732.054V66H728.218V48.864H724.13V56.62C724.13 60.0547 723.804 62.5373 723.15 64.068C722.497 65.5987 721.377 66.364 719.79 66.364C718.857 66.364 718.082 66.28 717.466 66.112V63.284C717.746 63.3773 718.157 63.424 718.698 63.424C719.146 63.424 719.473 63.2747 719.678 62.976C719.884 62.6773 720.042 61.9493 720.154 60.792C720.285 59.6347 720.35 57.8613 720.35 55.472V45.784ZM734.877 52.336C734.877 47.7253 737.071 45.42 741.457 45.42C743.529 45.42 745.125 45.9613 746.245 47.044C747.384 48.108 747.953 49.872 747.953 52.336V59.672C747.953 62.1173 747.393 63.8627 746.273 64.908C745.153 65.9533 743.548 66.476 741.457 66.476C737.071 66.476 734.877 64.208 734.877 59.672V52.336ZM741.457 48.5C739.684 48.5 738.797 49.6293 738.797 51.888V60.148C738.797 62.3133 739.684 63.396 741.457 63.396C742.279 63.396 742.913 63.1253 743.361 62.584C743.809 62.024 744.033 61.212 744.033 60.148V51.944C744.033 50.8613 743.809 50.0213 743.361 49.424C742.913 48.808 742.279 48.5 741.457 48.5ZM750.603 45.784H761.215V48.864H754.439V66H750.603V45.784ZM763.209 45.784H766.793V53.344C766.793 56.648 766.634 59.028 766.317 60.484H766.345L771.945 45.784H776.089V66H772.505V58.356C772.505 55.1453 772.663 52.8027 772.981 51.328H772.953L767.353 66H763.209V45.784ZM778.877 45.784H782.461V53.344C782.461 56.648 782.302 59.028 781.985 60.484H782.013L787.613 45.784H791.757V66H788.173V58.356C788.173 55.1453 788.331 52.8027 788.649 51.328H788.621L783.021 66H778.877V45.784ZM800.397 49.368V45.784H803.897V49.76C803.897 50.544 803.607 51.2813 803.029 51.972C802.469 52.6627 801.787 53.008 800.985 53.008H800.761V51.692C801.899 51.692 802.469 50.9173 802.469 49.368H800.397ZM794.853 49.368V45.784H798.353V49.76C798.353 50.544 798.063 51.2813 797.485 51.972C796.925 52.6627 796.243 53.008 795.441 53.008H795.217V51.692C796.355 51.692 796.925 50.9173 796.925 49.368H794.853ZM813.302 45.784H819.434L822.122 58.916L824.81 45.784H830.942V66H827.358V47.688H827.33L823.494 66H820.75L816.914 47.716H816.886V66H813.302V45.784ZM833.755 45.784H837.339V53.344C837.339 56.648 837.181 59.028 836.863 60.484H836.891L842.491 45.784H846.635V66H843.051V58.356C843.051 55.1453 843.21 52.8027 843.527 51.328H843.499L837.899 66H833.755V45.784ZM853.259 45.784V53.568H858.327V45.784H862.163V66H858.327V56.648H853.259V66H849.423V45.784H853.259ZM868.399 51.608H864.675C864.675 49.7973 865.207 48.3133 866.271 47.156C867.353 45.9987 868.828 45.42 870.695 45.42C871.703 45.42 872.636 45.5787 873.495 45.896C874.353 46.1947 875.109 46.764 875.763 47.604C876.416 48.444 876.743 49.508 876.743 50.796C876.743 51.8413 876.453 52.7747 875.875 53.596C875.296 54.4173 874.549 54.9493 873.635 55.192C874.68 55.4533 875.501 56.0227 876.099 56.9C876.715 57.7587 877.023 58.9253 877.023 60.4C877.023 62.416 876.491 63.9373 875.427 64.964C874.363 65.972 872.823 66.476 870.807 66.476C868.959 66.476 867.419 66.0093 866.187 65.076C864.973 64.124 864.367 62.64 864.367 60.624H868.091C868.091 62.472 868.921 63.396 870.583 63.396C872.263 63.396 873.103 62.276 873.103 60.036C873.103 57.8707 872.169 56.788 870.303 56.788H869.491V53.904H870.303C871.049 53.904 871.656 53.6893 872.123 53.26C872.589 52.8307 872.823 52.1867 872.823 51.328C872.823 50.544 872.655 49.8813 872.319 49.34C871.983 48.78 871.441 48.5 870.695 48.5C869.967 48.5 869.397 48.7893 868.987 49.368C868.595 49.928 868.399 50.6747 868.399 51.608ZM882.185 45.784H893.665V62.92H894.897V70.06H891.201V66H882.829V70.06H879.133V62.92H880.337C881.028 61.3707 881.504 59.8587 881.765 58.384C882.045 56.8907 882.185 54.7907 882.185 52.084V45.784ZM889.829 48.864H885.965V53.456C885.965 55.6587 885.816 57.4507 885.517 58.832C885.237 60.1947 884.78 61.5573 884.145 62.92H889.829V48.864ZM900.974 57.768V66H897.138V45.784H904.39C905.996 45.784 907.284 46.3533 908.254 47.492C909.225 48.612 909.71 50.012 909.71 51.692C909.71 53.4093 909.216 54.856 908.226 56.032C907.237 57.1893 905.94 57.768 904.334 57.768H900.974ZM900.974 48.78V54.772H902.906C904.829 54.772 905.79 53.764 905.79 51.748C905.79 49.7693 904.829 48.78 902.906 48.78H900.974ZM909.851 66L914.975 45.784H920.127L924.607 66H920.463L919.511 60.736H915.171L913.967 66H909.851ZM915.647 57.74H919.035L917.495 48.332L915.647 57.74ZM930.041 48.668V53.988H932.057C933.643 53.988 934.437 53.0733 934.437 51.244C934.437 50.3667 934.259 49.7227 933.905 49.312C933.55 48.8827 932.953 48.668 932.113 48.668H930.041ZM930.041 56.872V63.116H932.505C933.233 63.116 933.765 62.8733 934.101 62.388C934.455 61.9027 934.633 61.1 934.633 59.98C934.633 57.908 933.923 56.872 932.505 56.872H930.041ZM926.205 66V45.784H933.289C934.969 45.784 936.219 46.2507 937.041 47.184C937.862 48.1173 938.273 49.2933 938.273 50.712C938.273 51.7387 938.021 52.6907 937.517 53.568C937.013 54.4453 936.359 54.968 935.557 55.136C936.565 55.5467 937.311 56.144 937.797 56.928C938.301 57.6933 938.553 58.72 938.553 60.008C938.553 61.8187 938.161 63.2747 937.377 64.376C936.593 65.4587 935.445 66 933.933 66H926.205ZM939.71 66L944.834 45.784H949.986L954.466 66H950.322L949.37 60.736H945.03L943.826 66H939.71ZM945.506 57.74H948.894L947.354 48.332L945.506 57.74ZM966.627 57.768V66H962.791V45.784H970.043C971.648 45.784 972.936 46.3533 973.907 47.492C974.877 48.612 975.363 50.012 975.363 51.692C975.363 53.4093 974.868 54.856 973.879 56.032C972.889 57.1893 971.592 57.768 969.987 57.768H966.627ZM966.627 48.78V54.772H968.559C970.481 54.772 971.443 53.764 971.443 51.748C971.443 49.7693 970.481 48.78 968.559 48.78H966.627ZM977.881 52.336C977.881 47.7253 980.074 45.42 984.461 45.42C986.533 45.42 988.129 45.9613 989.249 47.044C990.388 48.108 990.957 49.872 990.957 52.336V59.672C990.957 62.1173 990.397 63.8627 989.277 64.908C988.157 65.9533 986.552 66.476 984.461 66.476C980.074 66.476 977.881 64.208 977.881 59.672V52.336ZM984.461 48.5C982.688 48.5 981.801 49.6293 981.801 51.888V60.148C981.801 62.3133 982.688 63.396 984.461 63.396C985.282 63.396 985.917 63.1253 986.365 62.584C986.813 62.024 987.037 61.212 987.037 60.148V51.944C987.037 50.8613 986.813 50.0213 986.365 49.424C985.917 48.808 985.282 48.5 984.461 48.5ZM1005.82 52.364H1001.98V51.916C1001.98 50.6467 1001.8 49.76 1001.45 49.256C1001.11 48.752 1000.53 48.5 999.711 48.5C998.89 48.5 998.292 48.7613 997.919 49.284C997.564 49.788 997.387 50.6653 997.387 51.916V59.896C997.387 61.184 997.564 62.0893 997.919 62.612C998.274 63.1347 998.862 63.396 999.683 63.396C1000.47 63.396 1001.05 63.1347 1001.42 62.612C1001.79 62.0707 1001.98 61.1653 1001.98 59.896V58.804H1005.82V59.672C1005.82 64.208 1003.78 66.476 999.711 66.476C998.498 66.476 997.462 66.2987 996.603 65.944C995.763 65.5893 995.119 65.0853 994.671 64.432C994.242 63.7787 993.934 63.0787 993.747 62.332C993.56 61.5667 993.467 60.6987 993.467 59.728V52.364C993.467 47.7347 995.567 45.42 999.767 45.42C1001.71 45.42 1003.2 45.9427 1004.25 46.988C1005.29 48.0147 1005.82 49.4707 1005.82 51.356V52.364ZM1020.69 52.364H1016.85V51.916C1016.85 50.6467 1016.68 49.76 1016.32 49.256C1015.99 48.752 1015.41 48.5 1014.59 48.5C1013.76 48.5 1013.17 48.7613 1012.79 49.284C1012.44 49.788 1012.26 50.6653 1012.26 51.916V59.896C1012.26 61.184 1012.44 62.0893 1012.79 62.612C1013.15 63.1347 1013.74 63.396 1014.56 63.396C1015.34 63.396 1015.92 63.1347 1016.29 62.612C1016.67 62.0707 1016.85 61.1653 1016.85 59.896V58.804H1020.69V59.672C1020.69 64.208 1018.66 66.476 1014.59 66.476C1013.37 66.476 1012.34 66.2987 1011.48 65.944C1010.64 65.5893 1009.99 65.0853 1009.55 64.432C1009.12 63.7787 1008.81 63.0787 1008.62 62.332C1008.44 61.5667 1008.34 60.6987 1008.34 59.728V52.364C1008.34 47.7347 1010.44 45.42 1014.64 45.42C1016.58 45.42 1018.08 45.9427 1019.12 46.988C1020.17 48.0147 1020.69 49.4707 1020.69 51.356V52.364ZM1023.36 45.784H1026.94V53.344C1026.94 56.648 1026.78 59.028 1026.47 60.484H1026.49L1032.09 45.784H1036.24V66H1032.65V58.356C1032.65 55.1453 1032.81 52.8027 1033.13 51.328H1033.1L1027.5 66H1023.36V45.784ZM1039.03 45.784H1042.61V53.344C1042.61 56.648 1042.45 59.028 1042.13 60.484H1042.16L1047.76 45.784H1051.91V66H1048.32V58.356C1048.32 55.1453 1048.48 52.8027 1048.8 51.328H1048.77L1043.17 66H1039.03V45.784Z" fill="#323439"/>
</g>
<defs>
<clipPath id="clip0_608_13343">
<rect width="1082" height="69" fill="white"/>
</clipPath>
</defs>
</svg>
