<svg width="68" height="41" viewBox="0 0 68 41" fill="none" xmlns="http://www.w3.org/2000/svg">
<path fill-rule="evenodd" clip-rule="evenodd" d="M34.0172 35.6457C37.6024 38.9447 42.4171 40.9458 47.6542 40.9458C58.9015 40.9458 68.0047 31.7849 68.0047 20.5176C68.0047 9.21599 58.9015 0.0546875 47.6542 0.0546875C42.4171 0.0546875 37.6024 2.05533 34.0172 5.35475C29.9049 9.11024 27.3037 14.5156 27.3037 20.5176C27.3041 26.5195 29.9049 31.9253 34.0172 35.6457Z" fill="#E9B040"/>
<path fill-rule="evenodd" clip-rule="evenodd" d="M65.2988 31.8898C65.2988 31.5387 65.5801 31.2582 65.9313 31.2582C66.3177 31.2582 66.5986 31.5391 66.5986 31.8898C66.5986 32.2765 66.3173 32.557 65.9313 32.557C65.5801 32.557 65.2988 32.2765 65.2988 31.8898ZM65.9313 32.4169C66.2126 32.4169 66.4579 32.1707 66.4579 31.8902C66.4579 31.6097 66.2122 31.399 65.9313 31.399C65.6848 31.399 65.4395 31.6097 65.4395 31.8902C65.4395 32.1707 65.6852 32.4169 65.9313 32.4169ZM65.861 32.2062H65.7204V31.6093H65.9661C66.0017 31.6093 66.072 31.6093 66.1067 31.6448C66.1771 31.6795 66.177 31.7151 66.177 31.7853C66.177 31.8555 66.1423 31.9257 66.072 31.9257L66.2126 32.2067H66.0364L65.9661 31.9604H65.861V32.2062V31.8551H66.0017C66.0364 31.8551 66.0364 31.8196 66.0364 31.7849C66.0364 31.7494 66.0364 31.7494 66.0017 31.7147H65.861V32.2062Z" fill="#E9B040"/>
<path fill-rule="evenodd" clip-rule="evenodd" d="M40.5896 18.3418C40.5193 17.6048 40.3787 16.903 40.238 16.1656H27.7956C27.9363 15.4286 28.1473 14.7267 28.3578 14.0245H39.6407C39.3958 13.2856 39.1143 12.5593 38.7972 11.8483H29.2369C29.5885 11.1048 29.9756 10.3786 30.3968 9.67206H37.6025C37.1389 8.92244 36.6221 8.20691 36.0562 7.53096H31.9435C32.5797 6.75514 33.2728 6.02772 34.0172 5.35475C30.3972 2.09044 25.6168 0.0546875 20.3446 0.0546875C9.13252 0.0546875 -0.00585938 9.21599 -0.00585938 20.5176C-0.00585938 31.7849 9.13252 40.9458 20.3446 40.9458C25.6168 40.9458 30.3968 38.9447 34.0172 35.6457C34.7503 34.9845 35.4319 34.2686 36.0562 33.5042H31.9435C31.3809 32.8023 30.8891 32.1005 30.3968 31.328H37.6025C38.0556 30.6339 38.4551 29.9064 38.7976 29.1518H29.2369C28.9204 28.4499 28.6044 27.748 28.3578 27.0103H39.6407C39.8864 26.3084 40.0626 25.5718 40.2376 24.834C40.3782 24.1322 40.5189 23.3956 40.5892 22.6578C40.6605 21.9462 40.6958 21.2315 40.6951 20.5163C40.6951 19.7806 40.66 19.0436 40.5896 18.3418Z" fill="#CC2131"/>
<path fill-rule="evenodd" clip-rule="evenodd" d="M65.2988 25.2562C65.2988 24.8703 65.5801 24.5898 65.9313 24.5898C66.3177 24.5898 66.5986 24.8708 66.5986 25.2562C66.5986 25.6073 66.3173 25.9233 65.9313 25.9233C65.5801 25.9233 65.2988 25.6069 65.2988 25.2562ZM65.9313 25.7473C66.2126 25.7473 66.4579 25.5367 66.4579 25.2562C66.4579 24.9757 66.2122 24.765 65.9313 24.765C65.6848 24.765 65.4395 24.9757 65.4395 25.2562C65.4395 25.5367 65.6852 25.7473 65.9313 25.7473ZM65.861 25.5367H65.7204V24.9753H66.1067C66.1771 25.0108 66.177 25.081 66.177 25.1512C66.177 25.1859 66.1423 25.2562 66.072 25.2917L66.2126 25.5371H66.0364L65.9661 25.3264H65.861V25.5367V25.2211H65.9313C65.9661 25.2211 66.0017 25.2211 66.0017 25.1855C66.0364 25.1855 66.0364 25.1508 66.0364 25.1153C66.0364 25.1153 66.0364 25.0806 66.0017 25.0806C66.0017 25.0451 65.9661 25.0806 65.9313 25.0806H65.861V25.5367Z" fill="white"/>
<path fill-rule="evenodd" clip-rule="evenodd" d="M27.0925 26.4146C26.4248 26.5898 25.9325 26.6955 25.4407 26.6955C24.3862 26.6955 23.7533 26.0284 23.7533 24.8349C23.7533 24.5896 23.7885 24.3438 23.8236 24.0629L23.9643 23.2561L24.0698 22.5889L25.0187 16.8328H27.1276L26.8815 18.0965H28.2172L27.9008 20.2024H26.565L26.0029 23.6419C25.9677 23.8179 25.9677 23.9228 25.9677 23.993C25.9677 24.4495 26.1787 24.6247 26.7057 24.6247C26.9518 24.6247 27.1624 24.59 27.3733 24.5545L27.0925 26.4146ZM33.9114 26.3444C33.1382 26.5551 32.4354 26.66 31.6619 26.66C29.2717 26.66 27.9008 25.3963 27.9008 22.9049C27.9008 19.9914 29.5178 17.8854 31.7669 17.8854C33.5594 17.8854 34.7193 19.0788 34.7193 20.9386C34.7193 21.571 34.649 22.1676 34.4736 23.0099H30.08C30.0448 23.1503 30.0448 23.2206 30.0448 23.2908C30.0448 24.2735 30.7125 24.7647 31.9779 24.7647C32.7862 24.7647 33.489 24.5896 34.2626 24.2388L33.9114 26.3444ZM32.6108 21.3253V20.9039C32.6108 20.202 32.224 19.8158 31.5564 19.8158C30.8531 19.8158 30.3613 20.3421 30.1503 21.3248H32.6108V21.3253ZM10.2214 26.5196H8.04214L9.30756 18.5525L6.46068 26.5196H4.94954L4.77374 18.5876L3.438 26.5196H1.29395L3.01605 16.1656H6.21455L6.28487 22.5542L8.42892 16.1656H11.9439L10.2214 26.5196ZM15.5292 22.7645C15.3182 22.729 15.2479 22.729 15.1072 22.729C13.8418 22.729 13.2093 23.2201 13.2093 23.9926C13.2093 24.5193 13.5257 24.8705 14.0176 24.8705C15.072 24.8705 15.4936 23.9926 15.5292 22.7645ZM17.2864 26.5196H15.3885L15.4237 25.6426C14.9314 26.3089 14.2637 26.66 13.1038 26.66C12.0494 26.66 11.1356 25.7128 11.1356 24.3438C11.1356 23.9579 11.2059 23.6072 11.3114 23.2561C11.6626 21.9569 12.9632 21.1501 14.9666 21.1146C15.2127 21.1146 15.5991 21.1146 15.9507 21.1501C16.0206 20.8692 16.0206 20.7634 16.0206 20.5883C16.0206 20.0265 15.5639 19.8509 14.5446 19.8509C13.9121 19.8509 13.2089 19.9562 12.717 20.1318L12.4006 20.202L12.2599 20.2367L12.5764 18.3414C13.5957 18.0254 14.3336 17.8854 15.1424 17.8854C17.0403 17.8854 18.0596 18.7628 18.0596 20.3772C18.0596 20.7986 18.0947 21.1146 17.9541 22.0271L17.4622 25.0456L17.3919 25.5723L17.3567 25.9937L17.3216 26.2746L17.2864 26.5196ZM44.5262 18.1663C45.1587 18.1663 45.7212 18.3418 46.4944 18.7277L46.8808 16.4812C46.6698 16.3759 46.5995 16.3759 46.3186 16.2706L45.4404 16.0248C45.1591 15.9545 44.8079 15.9194 44.4207 15.9194C43.3307 15.9194 42.6982 15.9545 42.0309 16.3408C41.6793 16.5866 41.2222 16.9026 40.7299 17.464L40.4486 17.3938L38.1991 18.9731L38.305 18.0956H35.9847L34.6146 26.5192H36.8294L37.6373 21.992C37.6373 21.992 37.9542 21.3595 38.0944 21.1497C38.5164 20.623 38.8676 20.623 39.3243 20.623H39.5005C39.4267 21.1579 39.3913 21.6974 39.3946 22.2374C39.3946 24.975 40.9409 26.6951 43.3311 26.6951C43.9288 26.6951 44.4567 26.6249 45.2646 26.4142L45.6518 24.0277C44.9489 24.4136 44.316 24.5892 43.7886 24.5892C42.4884 24.5892 41.7144 23.6064 41.7144 22.0622C41.7136 19.7807 42.874 18.1663 44.5262 18.1663ZM63.1889 16.1656L62.6974 19.1139C62.17 18.3067 61.5371 17.9205 60.6936 17.9205C59.5333 17.9205 58.4441 18.5872 57.776 19.8509V19.8162L56.3703 18.9735L56.511 18.0961H54.156L52.8202 26.5196H54.9994L55.7379 21.9924C55.7379 21.9924 56.3 21.36 56.4407 21.1501C56.7923 20.7287 57.1435 20.6581 57.4248 20.6234C57.1791 21.3253 57.0384 22.1676 57.0384 23.1156C57.0384 25.2216 58.1276 26.6253 59.7442 26.6253C60.553 26.6253 61.1855 26.3444 61.7828 25.6773L61.6777 26.5196H63.7519L65.4388 16.1656H63.1889ZM60.4831 24.5193C59.7447 24.5193 59.3583 23.9579 59.3583 22.8694C59.3583 21.2195 60.0611 20.0265 61.08 20.0265C61.8531 20.0265 62.2403 20.6234 62.2403 21.6764C62.2403 23.361 61.5375 24.5193 60.4831 24.5193ZM50.3258 22.7645C50.1148 22.729 50.0445 22.729 49.9039 22.729C48.6376 22.729 48.0051 23.2201 48.0051 23.9926C48.0051 24.5193 48.322 24.8705 48.8138 24.8705C49.8683 24.8705 50.2902 23.9926 50.3258 22.7645ZM52.0831 26.5196H50.1496L50.2199 25.6426C49.7281 26.3089 49.0596 26.66 47.9005 26.66C46.8104 26.66 45.8619 25.7475 45.8619 24.3438C45.8619 22.3435 47.3726 21.115 49.7628 21.115C50.0093 21.115 50.3953 21.115 50.7122 21.1505C50.7825 20.8696 50.8181 20.7639 50.8181 20.5887C50.8181 20.0269 50.361 19.8513 49.3065 19.8513C48.7088 19.8513 47.9708 19.9567 47.4789 20.1322L47.1976 20.2024L47.057 20.2371L47.373 18.3418C48.3927 18.0258 49.1311 17.8858 49.939 17.8858C51.8369 17.8858 52.8211 18.7632 52.8211 20.3776C52.8211 20.799 52.8914 21.115 52.716 22.0275L52.2589 25.046L52.1886 25.5727L52.1182 25.9941L52.0835 26.275V26.5196H52.0831ZM21.8906 19.886C22.3125 19.886 22.9098 19.9211 23.5428 20.0265L23.8592 18.0609C23.2263 17.9907 22.3828 17.8854 21.8906 17.8854C19.4305 17.8854 18.6222 19.2193 18.6222 20.7634C18.6222 21.7817 19.0789 22.5183 20.2739 23.0797C21.1526 23.501 21.2932 23.5709 21.2932 23.9575C21.2932 24.4834 20.8365 24.7998 19.9926 24.7998C19.325 24.7998 18.6921 24.6941 17.9892 24.4487L17.7431 26.3787L17.7779 26.4142L18.1998 26.4845C18.3405 26.5192 18.5163 26.5547 18.7624 26.5894C19.2894 26.6249 19.7465 26.6596 20.0278 26.6596C22.4883 26.6596 23.5076 25.7124 23.5076 23.8518C23.5076 22.6938 22.945 21.992 21.8554 21.5008C20.9064 21.079 20.801 21.0096 20.801 20.623C20.801 20.2371 21.2229 19.886 21.8906 19.886Z" fill="#1B3771"/>
<path fill-rule="evenodd" clip-rule="evenodd" d="M47.4784 15.8144L47.0912 18.0608C46.3181 17.6746 45.7555 17.4994 45.123 17.4994C43.4708 17.4994 42.3113 19.1138 42.3113 21.3953C42.3113 22.975 43.0844 23.9223 44.3854 23.9223C44.912 23.9223 45.5449 23.7471 46.2477 23.3964L45.8614 25.7474C45.0527 25.958 44.5256 26.0638 43.9279 26.0638C41.5381 26.0638 40.0617 24.3436 40.0617 21.5713C40.0617 17.8857 42.1003 15.2881 45.0175 15.2881C45.4039 15.2881 45.7551 15.3232 46.0364 15.3934L46.9154 15.6041C47.1971 15.7094 47.2674 15.7446 47.4784 15.8144ZM40.3782 17.359H40.1672C39.4296 17.359 39.0077 17.7101 38.3396 18.7276L38.5506 17.4288H36.5468L35.1767 25.8527H37.3915C38.1994 20.6931 38.4104 19.8157 39.4648 19.8157H39.6055C39.8164 18.7978 40.0973 18.0604 40.4489 17.3937L40.3782 17.359ZM27.6549 25.7474C27.0576 25.958 26.5653 26.0283 26.0735 26.0283C24.9487 26.0283 24.3158 25.3966 24.3158 24.1685C24.3158 23.9578 24.351 23.6773 24.3861 23.4311L24.5268 22.5888L24.6323 21.9225L25.5812 16.1655H27.7604L27.5143 17.4292H28.6391L28.3578 19.5H27.233L26.6357 23.0102C26.6005 23.1506 26.6005 23.2564 26.6005 23.3613C26.6005 23.7826 26.8115 23.9582 27.3385 23.9582C27.5846 23.9582 27.7952 23.9582 27.9358 23.888L27.6549 25.7474ZM19.1842 20.0966C19.1842 21.15 19.6761 21.8865 20.836 22.4483C21.7498 22.8697 21.8905 23.0097 21.8905 23.3609C21.8905 23.8876 21.5037 24.133 20.625 24.133C19.9574 24.133 19.3596 24.028 18.6568 23.8173L18.3403 25.7474L18.4458 25.7829L18.8326 25.8531C18.9728 25.8878 19.1491 25.9233 19.4299 25.9233C19.9218 25.9936 20.3437 25.9936 20.625 25.9936C22.9445 25.9936 24.0345 25.1157 24.0345 23.1857C24.0345 22.027 23.5778 21.3598 22.4882 20.8339C21.5393 20.4126 21.4338 20.3077 21.4338 19.9214C21.4338 19.4653 21.8205 19.2547 22.5234 19.2547C22.9453 19.2547 23.5427 19.2898 24.1052 19.36L24.4213 17.4296C23.8591 17.3243 22.9805 17.254 22.4882 17.254C20.0277 17.2536 19.1491 18.5524 19.1842 20.0966ZM64.3144 25.8531H62.2402L62.3461 25.0455C61.7484 25.6771 61.1155 25.958 60.3067 25.958C58.6901 25.958 57.6357 24.5898 57.6357 22.4839C57.6357 19.6756 59.2879 17.2887 61.2205 17.2887C62.0996 17.2887 62.7321 17.675 63.3302 18.4471L63.8221 15.4988H66.0013L64.3144 25.8531ZM61.0803 23.8876C62.1 23.8876 62.8028 22.6941 62.8028 21.0442C62.8028 19.9561 62.4156 19.3943 61.6425 19.3943C60.6583 19.3943 59.9208 20.5526 59.9208 22.2025C59.9208 23.3262 60.3071 23.8876 61.0803 23.8876ZM34.4031 25.6771C33.6296 25.9233 32.9268 26.0283 32.1184 26.0283C29.6579 26.0283 28.3925 24.7299 28.3925 22.2377C28.3925 19.3596 30.0096 17.2185 32.2239 17.2185C34.0515 17.2185 35.211 18.4119 35.211 20.2721C35.211 20.9042 35.1407 21.5011 34.9297 22.3781H30.5721C30.537 22.4839 30.537 22.5541 30.537 22.6243C30.537 23.6071 31.2051 24.0983 32.4701 24.0983C33.2784 24.0983 33.9812 23.9578 34.7548 23.5716L34.4031 25.6771ZM33.1729 20.658V20.237C33.1729 19.5352 32.7861 19.1489 32.1184 19.1489C31.4156 19.1489 30.9233 19.6756 30.7124 20.658H33.1729ZM10.7838 25.8531H8.60462L9.87004 17.8852L7.02316 25.8531H5.51162L5.3358 17.9555L4.00048 25.8531H1.96191L3.68402 15.4988H6.84735L6.95284 21.922L9.06132 15.4988H12.5059L10.7838 25.8531ZM16.2319 22.0972C16.0209 22.0972 15.9154 22.0625 15.7396 22.0625C14.5093 22.0625 13.8768 22.5186 13.8768 23.3609C13.8768 23.8876 14.1581 24.2032 14.65 24.2032C15.5638 24.2032 16.1967 23.3609 16.2319 22.0972ZM17.8485 25.8531H16.0205L16.0556 24.9753C15.4931 25.6771 14.7551 25.9936 13.7358 25.9936C12.5407 25.9936 11.7324 25.081 11.7324 23.712C11.7324 21.6416 13.138 20.4481 15.5985 20.4481C15.8447 20.4481 16.1611 20.4832 16.5123 20.5179C16.5827 20.2374 16.5827 20.1321 16.5827 19.9916C16.5827 19.4302 16.1959 19.2196 15.1766 19.2196C14.5441 19.2196 13.8409 19.2898 13.349 19.4302L13.0325 19.5356L12.8216 19.5707L13.138 17.6754C14.2276 17.3594 14.9656 17.254 15.7743 17.254C17.6723 17.254 18.6915 18.0963 18.6915 19.7107C18.6915 20.1321 18.6564 20.4481 18.5157 21.3958L18.0235 24.3796L17.9531 24.9055L17.918 25.3268L17.8828 25.6433L17.8485 25.8531ZM51.0285 22.0972C50.782 22.0972 50.6769 22.0625 50.5367 22.0625C49.2713 22.0625 48.6379 22.5186 48.6379 23.3609C48.6379 23.8876 48.9548 24.2032 49.4467 24.2032C50.3257 24.2032 50.993 23.3609 51.0285 22.0972ZM52.6452 25.8531H50.8176L50.8523 24.9753C50.2901 25.6771 49.5521 25.9936 48.5329 25.9936C47.3378 25.9936 46.529 25.081 46.529 23.712C46.529 21.6416 47.9347 20.4481 50.3952 20.4481C50.6418 20.4481 50.9582 20.4832 51.2743 20.5179C51.3446 20.2374 51.3801 20.1321 51.3801 19.9916C51.3801 19.4302 50.993 19.2196 49.9745 19.2196C49.3412 19.2196 48.6036 19.2898 48.1113 19.4302L47.83 19.5356L47.6191 19.5707L47.9351 17.6754C49.0251 17.3594 49.7627 17.254 50.5714 17.254C52.4693 17.254 53.4535 18.0963 53.4535 19.7107C53.4535 20.1321 53.4535 20.4481 53.2781 21.3958L52.821 24.3796L52.7506 24.9055L52.6803 25.3268L52.6456 25.6433V25.8531H52.6452ZM58.5499 17.359H58.3389C57.6013 17.359 57.1794 17.7101 56.5113 18.7276L56.7223 17.4288H54.7185L53.3827 25.8527H55.5619C56.3707 20.6931 56.5816 19.8157 57.6361 19.8157H57.7767C57.9877 18.7978 58.2686 18.0604 58.6202 17.3937L58.5499 17.359Z" fill="white"/>
</svg>
