<svg width="32" height="32" viewBox="0 0 32 32" fill="none" xmlns="http://www.w3.org/2000/svg">
<g clip-path="url(#clip0_782_1825)">
<path d="M5.33333 0C2.388 0 0 2.388 0 5.33333V26.6667C0 29.612 2.388 32 5.33333 32H26.6667C29.612 32 32 29.612 32 26.6667V5.33333C32 2.388 29.612 0 26.6667 0H5.33333ZM16 5.33333C18.9407 5.33333 21.3333 7.726 21.3333 10.6667C21.3333 13.6073 18.9407 16 16 16C13.0593 16 10.6667 13.6073 10.6667 10.6667C10.6667 7.726 13.0593 5.33333 16 5.33333ZM16 8C15.2928 8 14.6145 8.28095 14.1144 8.78105C13.6143 9.28115 13.3333 9.95942 13.3333 10.6667C13.3333 11.3739 13.6143 12.0522 14.1144 12.5523C14.6145 13.0524 15.2928 13.3333 16 13.3333C16.7072 13.3333 17.3855 13.0524 17.8856 12.5523C18.3857 12.0522 18.6667 11.3739 18.6667 10.6667C18.6667 9.95942 18.3857 9.28115 17.8856 8.78105C17.3855 8.28095 16.7072 8 16 8ZM11.3242 16.6667C11.5804 16.6645 11.8398 16.736 12.069 16.888C12.1137 16.9167 13.8153 18 16 18C18.2033 18 19.9156 16.8981 19.9323 16.8867C20.5456 16.4854 21.3714 16.6536 21.776 17.2669C22.18 17.8796 22.0169 18.702 21.4062 19.1094C21.3302 19.16 19.8606 20.1225 17.7266 20.5078L21.6094 24.3906C22.13 24.9113 22.13 25.7554 21.6094 26.276C21.3487 26.5367 21.008 26.6667 20.6667 26.6667C20.3253 26.6667 19.9846 26.5367 19.724 26.276L16 22.5521L12.276 26.276C11.7554 26.7967 10.9113 26.7967 10.3906 26.276C9.86996 25.7554 9.86996 24.9113 10.3906 24.3906L14.2734 20.5078C12.1388 20.1225 10.6698 19.1607 10.5938 19.1094C9.98108 18.7014 9.81596 17.8731 10.224 17.2604C10.479 16.8783 10.8973 16.6703 11.3242 16.6667Z" fill="white"/>
</g>
<defs>
<clipPath id="clip0_782_1825">
<rect width="32" height="32" fill="white"/>
</clipPath>
</defs>
</svg>
