<svg width="62" height="21" viewBox="0 0 62 21" fill="none" xmlns="http://www.w3.org/2000/svg">
<path d="M26.529 20.673H21.5355L24.6564 1.19665H29.6503L26.529 20.673ZM17.3347 1.19665L12.5742 14.5926L12.0109 11.708L12.0114 11.709L10.3312 2.95027C10.3312 2.95027 10.128 1.19665 7.96243 1.19665H0.092348L0 1.52643C0 1.52643 2.40669 2.03491 5.2233 3.75258L9.56159 20.6735H14.7644L22.7088 1.19665H17.3347ZM56.6108 20.673H61.1958L57.1982 1.19613H53.1841C51.3305 1.19613 50.879 2.64758 50.879 2.64758L43.4317 20.673H48.637L49.678 17.78H56.0259L56.6108 20.673ZM51.1161 13.7835L53.7398 6.49502L55.2158 13.7835H51.1161ZM43.8221 5.88026L44.5347 1.69783C44.5347 1.69783 42.3358 0.848633 40.0436 0.848633C37.5656 0.848633 31.6809 1.94842 31.6809 7.29629C31.6809 12.3279 38.5875 12.3904 38.5875 15.0334C38.5875 17.6763 32.3925 17.2027 30.3481 15.5361L29.6057 19.9092C29.6057 19.9092 31.8354 21.009 35.242 21.009C38.6496 21.009 43.7903 19.2174 43.7903 14.341C43.7903 9.27706 36.8216 8.80557 36.8216 6.60391C36.8222 4.40172 41.6853 4.68461 43.8221 5.88026Z" fill="#2566AF"/>
</svg>
