<svg width="14" height="8" viewBox="0 0 14 8" fill="none" xmlns="http://www.w3.org/2000/svg">
<path d="M1.48689 0.944269L6.999 6.045L12.5111 0.944269C12.6096 0.852951 12.7418 0.801828 12.8795 0.801828C13.0171 0.801828 13.1493 0.852951 13.2478 0.944269C13.2955 0.988622 13.3334 1.04156 13.3593 1.09999C13.3851 1.15841 13.3984 1.22115 13.3984 1.28453C13.3984 1.3479 13.3851 1.41064 13.3593 1.46907C13.3334 1.52749 13.2955 1.58043 13.2478 1.62478L7.3839 7.05216C7.28092 7.14745 7.14281 7.20078 6.999 7.20078C6.8552 7.20078 6.71708 7.14745 6.6141 7.05216L0.75018 1.62583C0.702157 1.58145 0.663989 1.52838 0.637926 1.46976C0.611864 1.41114 0.598437 1.34815 0.598437 1.28453C0.598437 1.2209 0.611864 1.15792 0.637926 1.0993C0.663989 1.04068 0.702157 0.987608 0.75018 0.943221C0.848663 0.851904 0.980869 0.800781 1.11854 0.800781C1.2562 0.800781 1.38841 0.851904 1.48689 0.943221V0.944269Z" fill="white"/>
</svg>
