<svg width="412" height="103" viewBox="0 0 412 103" fill="none" xmlns="http://www.w3.org/2000/svg">
<g clip-path="url(#clip0_802_37449)">
<path d="M381 35.8933C380.999 35.5937 380.992 35.2942 380.978 34.995V18.0125L376.28 22.7075C372.434 18.0042 366.584 15 360.032 15C353.213 15 347.154 18.2523 343.325 23.2893L351.027 31.0657C351.781 29.6737 352.849 28.4761 354.146 27.568C355.491 26.5198 357.396 25.6623 360.032 25.6623C360.35 25.6623 360.596 25.6997 360.776 25.7695C364.042 26.0272 366.872 27.8277 368.538 30.4411L363.087 35.8884C369.992 35.8613 377.792 35.8456 380.999 35.8921" fill="#1C3AA9"/>
<path d="M359.91 15.001C359.61 15.0018 359.31 15.009 359.011 15.0224H342.015L346.714 19.7174C342.007 23.5598 339 29.4054 339 35.9528C339 42.7667 342.255 48.8201 347.296 52.6465L355.078 44.9511C353.685 44.1975 352.487 43.1301 351.578 41.8335C350.529 40.4902 349.671 38.5864 349.671 35.953C349.671 35.6351 349.708 35.3894 349.778 35.2089C350.036 31.9463 351.838 29.1182 354.453 27.4532L359.905 32.9004C359.878 26.0004 359.862 18.2061 359.908 15.0015" fill="#4285F4"/>
<path d="M339 35.9521C339.001 36.2531 339.008 36.5524 339.021 36.8504V53.8329L343.72 49.1379C347.566 53.8412 353.416 56.8454 359.968 56.8454C366.787 56.8454 372.846 53.5931 376.675 48.5561L368.973 40.7797C368.219 42.1718 367.151 43.3693 365.854 44.2774C364.509 45.3257 362.604 46.1831 359.968 46.1831C359.65 46.1831 359.404 46.1458 359.224 46.0757C355.959 45.8182 353.128 44.0175 351.462 41.4043L356.913 35.9568C350.008 35.9839 342.208 35.9999 339 35.9534" fill="#ABABAB"/>
<path d="M342.538 64.9594C342.028 64.9594 341.57 65.056 341.165 65.2495C340.763 65.4363 340.41 65.7144 340.134 66.0615C339.857 66.4134 339.643 66.8403 339.494 67.3416C339.348 67.8389 339.276 68.3953 339.276 69.0113V70.7867C339.276 71.4069 339.348 71.9656 339.494 72.4628C339.643 72.96 339.855 73.3844 340.128 73.7366C340.401 74.0882 340.731 74.3589 341.118 74.548C341.506 74.7374 341.942 74.8321 342.426 74.8321C342.924 74.8321 343.36 74.7593 343.734 74.6142C344.113 74.4691 344.43 74.2601 344.685 73.9871C344.94 73.71 345.136 73.3758 345.273 72.9841C345.414 72.5926 345.497 72.148 345.524 71.6511H344.302C344.271 72.0337 344.218 72.3617 344.143 72.6344C344.069 72.9027 343.958 73.125 343.813 73.3008C343.672 73.4725 343.487 73.6001 343.258 73.6837C343.034 73.7629 342.756 73.8025 342.426 73.8025C342.074 73.8025 341.774 73.7255 341.528 73.5713C341.281 73.413 341.081 73.1975 340.927 72.9246C340.777 72.6519 340.667 72.333 340.597 71.9678C340.531 71.6026 340.498 71.2089 340.498 70.7865V68.998C340.498 68.5448 340.537 68.1334 340.616 67.7639C340.7 67.3945 340.826 67.0798 340.993 66.8203C341.16 66.5607 341.372 66.3605 341.627 66.2196C341.882 66.0745 342.186 66.002 342.538 66.002C342.833 66.002 343.087 66.046 343.298 66.134C343.507 66.2155 343.689 66.3524 343.826 66.5299C343.967 66.7057 344.075 66.9303 344.15 67.203C344.225 67.4759 344.275 67.8012 344.302 68.1797H345.524C345.502 67.6606 345.42 67.201 345.279 66.8004C345.138 66.4001 344.942 66.0634 344.691 65.7907C344.44 65.5178 344.135 65.3112 343.774 65.1703C343.417 65.0297 343.005 64.9591 342.538 64.9591V64.9594ZM372.365 64.9594C371.854 64.9594 371.396 65.056 370.991 65.2495C370.589 65.4363 370.236 65.7144 369.961 66.0615C369.683 66.4134 369.47 66.8403 369.32 67.3416C369.175 67.8389 369.102 68.3953 369.102 69.0113V70.7867C369.102 71.4069 369.175 71.9656 369.32 72.4628C369.47 72.96 369.681 73.3844 369.954 73.7366C370.227 74.0882 370.557 74.3589 370.945 74.548C371.332 74.7374 371.768 74.8321 372.252 74.8321C372.75 74.8321 373.186 74.7593 373.56 74.6142C373.939 74.4691 374.256 74.2601 374.511 73.9871C374.767 73.71 374.962 73.3758 375.099 72.9841C375.24 72.5926 375.324 72.148 375.35 71.6511H374.128C374.097 72.0337 374.045 72.3617 373.97 72.6344C373.895 72.9027 373.785 73.125 373.639 73.3008C373.499 73.4725 373.314 73.6001 373.085 73.6837C372.86 73.7629 372.583 73.8025 372.252 73.8025C371.9 73.8025 371.601 73.7255 371.354 73.5713C371.108 73.413 370.907 73.1975 370.753 72.9246C370.604 72.6519 370.494 72.333 370.423 71.9678C370.357 71.6026 370.324 71.2089 370.324 70.7865V68.998C370.324 68.5448 370.363 68.1334 370.443 67.7639C370.527 67.3945 370.652 67.0798 370.819 66.8203C370.987 66.5607 371.198 66.3605 371.453 66.2196C371.709 66.0745 372.013 66.002 372.365 66.002C372.66 66.002 372.913 66.046 373.124 66.134C373.336 66.2176 373.512 66.3494 373.653 66.5299C373.793 66.7057 373.901 66.9303 373.976 67.203C374.051 67.4759 374.102 67.8012 374.128 68.1797H375.35C375.328 67.6606 375.247 67.201 375.106 66.8004C374.965 66.4001 374.769 66.0634 374.518 65.7907C374.267 65.5178 373.961 65.3112 373.6 65.1703C373.243 65.0297 372.832 64.9591 372.365 64.9591L372.365 64.9594ZM349.5 65.0914L346.403 74.7H347.644L348.39 72.1921H351.64L352.399 74.7H353.641L350.537 65.0914H349.5ZM354.949 65.0914V74.7H356.157V70.9382H358.013C358.475 70.9382 358.885 70.8743 359.241 70.7469C359.598 70.6148 359.898 70.4257 360.14 70.1793C360.386 69.933 360.571 69.6293 360.694 69.2685C360.822 68.9034 360.886 68.49 360.886 68.028C360.886 67.6011 360.822 67.2096 360.694 66.8533C360.571 66.4925 360.389 66.1822 360.146 65.9228C359.904 65.6587 359.602 65.4541 359.241 65.309C358.885 65.1639 358.475 65.0912 358.013 65.0912H354.949V65.0914ZM361.811 65.0914V66.134H364.334V74.7H365.542V66.134H368.072V65.0914H361.811ZM376.981 65.0914V74.7H378.19V70.2585H382.06V74.7H383.275V65.0914H382.06V69.2225H378.19V65.0914H376.981ZM387.859 65.0914L384.761 74.7H386.003L386.749 72.1921H389.999L390.758 74.7H392L388.896 65.0914H387.859H387.859ZM356.157 66.134H358.013C358.308 66.134 358.559 66.1866 358.766 66.2924C358.977 66.3981 359.149 66.5388 359.281 66.7148C359.421 66.8972 359.522 67.1059 359.578 67.3284C359.644 67.5571 359.677 67.7948 359.677 68.0412C359.677 68.3142 359.644 68.5648 359.578 68.7937C359.522 69.0081 359.42 69.2082 359.281 69.3809C359.149 69.5437 358.977 69.6711 358.766 69.7635C358.559 69.856 358.308 69.9022 358.013 69.9022H356.157V66.134H356.157ZM350.015 66.7807L351.329 71.1494H348.707L350.015 66.7807ZM388.374 66.7807L389.688 71.1494H387.066L388.374 66.7807ZM331.483 67.4275C331.179 67.4275 330.917 67.5044 330.697 67.6586C330.481 67.8125 330.301 68.0216 330.156 68.2854L330.136 67.5595H329V74.7H330.169V69.5919C330.279 69.2882 330.435 69.0484 330.638 68.8726C330.845 68.6966 331.107 68.6085 331.424 68.6085C331.525 68.6085 331.615 68.613 331.694 68.6218C331.774 68.6262 331.86 68.6371 331.952 68.6548L331.946 67.5197C331.918 67.5076 331.889 67.4987 331.86 67.4931C331.821 67.4789 331.781 67.4679 331.741 67.4602C331.695 67.4512 331.649 67.4446 331.602 67.4405C331.563 67.4322 331.523 67.4278 331.483 67.4272V67.4275ZM335.413 67.4275C335.074 67.4275 334.746 67.487 334.429 67.6057C334.112 67.7245 333.83 67.9203 333.583 68.193C333.341 68.4615 333.145 68.8134 332.996 69.2489C332.846 69.6802 332.771 70.2103 332.771 70.8394V71.6444C332.771 72.1901 332.835 72.663 332.963 73.0633C333.09 73.4636 333.273 73.7961 333.511 74.0599C333.754 74.32 334.055 74.5191 334.389 74.6407C334.733 74.7684 335.118 74.8321 335.545 74.8321C335.853 74.8321 336.128 74.8013 336.371 74.7396C336.617 74.6781 336.835 74.5989 337.025 74.5021C337.202 74.4095 337.366 74.2942 337.513 74.159C337.643 74.0391 337.76 73.9065 337.863 73.7631L337.256 73.0239C337.159 73.1427 337.055 73.2526 336.945 73.3537C336.835 73.4506 336.714 73.5364 336.582 73.6112C336.444 73.6838 336.298 73.7392 336.146 73.7762C335.971 73.8177 335.791 73.8377 335.611 73.8357C335.07 73.8357 334.654 73.6618 334.363 73.3144C334.077 72.9666 333.934 72.4102 333.934 71.6447V71.4794H337.923V70.7998C337.923 70.2544 337.877 69.7724 337.784 69.3546C337.692 68.9366 337.544 68.5847 337.342 68.2987C337.144 68.0172 336.875 67.7939 336.562 67.652C336.245 67.5022 335.862 67.4275 335.413 67.4275ZM335.413 68.4307C335.668 68.4307 335.88 68.4767 336.047 68.5692C336.213 68.6599 336.35 68.7946 336.443 68.9584C336.544 69.1257 336.617 69.3258 336.661 69.5592C336.71 69.7879 336.741 70.0409 336.754 70.318V70.4764H333.94C333.958 70.0761 334.006 69.7439 334.085 69.4798C334.165 69.2159 334.268 69.0069 334.396 68.853C334.528 68.6946 334.68 68.5847 334.852 68.523C335.032 68.4599 335.222 68.4286 335.413 68.4305V68.4307Z" fill="#A6A6A6"/>
</g>
<path d="M128.168 85.6H129.404L125.66 89.548L129.596 94H128.288L124.484 89.62L128.168 85.6ZM124.28 94H123.26V85.6H124.28V94ZM130.597 93.328C130.069 92.784 129.805 92.108 129.805 91.3C129.805 90.484 130.069 89.812 130.597 89.284C131.133 88.748 131.829 88.48 132.685 88.48C133.541 88.48 134.233 88.748 134.761 89.284C135.297 89.812 135.565 90.484 135.565 91.3C135.565 92.116 135.297 92.792 134.761 93.328C134.233 93.856 133.541 94.12 132.685 94.12C131.837 94.12 131.141 93.856 130.597 93.328ZM131.353 89.92C131.001 90.272 130.825 90.732 130.825 91.3C130.825 91.868 130.997 92.328 131.341 92.68C131.693 93.04 132.141 93.22 132.685 93.22C133.229 93.22 133.673 93.044 134.017 92.692C134.369 92.332 134.545 91.868 134.545 91.3C134.545 90.748 134.369 90.288 134.017 89.92C133.673 89.56 133.229 89.38 132.685 89.38C132.141 89.38 131.697 89.56 131.353 89.92ZM141.87 94H140.91V91.72H137.91V94H136.95V88.6H137.91V90.82H140.91V88.6H141.87V94ZM147.266 96.4H146.306V94.12H146.174C145.27 94.12 144.554 93.856 144.026 93.328C143.506 92.792 143.246 92.116 143.246 91.3C143.246 90.524 143.51 89.86 144.038 89.308C144.566 88.756 145.274 88.48 146.162 88.48H146.306V85.6H147.266V88.48H147.422C148.302 88.48 149.006 88.748 149.534 89.284C150.062 89.82 150.326 90.492 150.326 91.3C150.326 92.14 150.07 92.82 149.558 93.34C149.054 93.86 148.342 94.12 147.422 94.12H147.266V96.4ZM144.266 91.3C144.266 91.884 144.438 92.352 144.782 92.704C145.134 93.048 145.61 93.22 146.21 93.22H146.306V89.38H146.15C145.566 89.38 145.106 89.56 144.77 89.92C144.434 90.272 144.266 90.732 144.266 91.3ZM147.422 89.38H147.266V93.22H147.374C147.982 93.22 148.454 93.048 148.79 92.704C149.134 92.352 149.306 91.884 149.306 91.3C149.306 90.772 149.138 90.32 148.802 89.944C148.466 89.568 148.006 89.38 147.422 89.38ZM155.784 89.98L152.664 94H151.704V88.6H152.664V92.62L155.784 88.6H156.744V94H155.784V89.98ZM158.645 95.32H157.745V93.1H158.417C158.617 92.852 158.793 92.452 158.945 91.9C159.097 91.34 159.197 90.716 159.245 90.028L159.329 88.6H163.013V93.1H163.913V95.32H163.013V94H158.645V95.32ZM160.229 89.5L160.169 90.4C160.121 91 160.025 91.548 159.881 92.044C159.737 92.54 159.589 92.892 159.437 93.1H162.053V89.5H160.229ZM169.218 92.656L169.518 93.412C168.998 93.884 168.322 94.12 167.49 94.12C166.61 94.12 165.91 93.864 165.39 93.352C164.862 92.84 164.598 92.156 164.598 91.3C164.598 90.492 164.846 89.82 165.342 89.284C165.83 88.748 166.51 88.48 167.382 88.48C168.102 88.48 168.698 88.712 169.17 89.176C169.65 89.632 169.89 90.224 169.89 90.952C169.89 91.184 169.87 91.4 169.83 91.6H165.678C165.718 92.104 165.906 92.5 166.242 92.788C166.586 93.076 167.026 93.22 167.562 93.22C168.266 93.22 168.818 93.032 169.218 92.656ZM167.334 89.38C166.862 89.38 166.47 89.512 166.158 89.776C165.854 90.04 165.674 90.388 165.618 90.82H168.894C168.87 90.372 168.718 90.02 168.438 89.764C168.166 89.508 167.798 89.38 167.334 89.38ZM176.112 94H175.152V91.72H172.152V94H171.192V88.6H172.152V90.82H175.152V88.6H176.112V94ZM182.648 94H177.848V88.6H178.808V93.1H181.688V88.6H182.648V93.1H183.548V95.32H182.648V94ZM188.667 89.98L185.547 94H184.587V88.6H185.547V92.62L188.667 88.6H189.627V94H188.667V89.98ZM191.66 89.74L191.408 88.972C191.944 88.644 192.544 88.48 193.208 88.48C193.936 88.48 194.464 88.66 194.792 89.02C195.12 89.38 195.284 89.936 195.284 90.688V94H194.372V93.304C193.948 93.824 193.372 94.084 192.644 94.084C192.148 94.084 191.748 93.936 191.444 93.64C191.14 93.336 190.988 92.928 190.988 92.416C190.988 91.888 191.176 91.472 191.552 91.168C191.928 90.856 192.42 90.7 193.028 90.7C193.596 90.7 194.044 90.816 194.372 91.048C194.372 90.44 194.288 90.004 194.12 89.74C193.952 89.476 193.628 89.344 193.148 89.344C192.66 89.344 192.164 89.476 191.66 89.74ZM192.98 93.22C193.516 93.22 193.98 92.988 194.372 92.524V91.84C194.036 91.6 193.632 91.48 193.16 91.48C192.832 91.48 192.556 91.56 192.332 91.72C192.116 91.872 192.008 92.088 192.008 92.368C192.008 92.632 192.092 92.84 192.26 92.992C192.436 93.144 192.676 93.22 192.98 93.22ZM201.547 94H200.587V89.56H198.691L198.631 90.472C198.567 91.216 198.471 91.836 198.343 92.332C198.223 92.82 198.063 93.188 197.863 93.436C197.671 93.676 197.467 93.844 197.251 93.94C197.035 94.028 196.771 94.072 196.459 94.072L196.387 93.136C196.475 93.144 196.567 93.132 196.663 93.1C196.759 93.06 196.863 92.98 196.975 92.86C197.095 92.74 197.199 92.58 197.287 92.38C197.383 92.18 197.467 91.9 197.539 91.54C197.619 91.172 197.671 90.752 197.695 90.28L197.791 88.6H201.547V94ZM205.102 94H203.278V88.6H204.238V90.22H205.222C205.958 90.22 206.498 90.388 206.842 90.724C207.186 91.052 207.358 91.504 207.358 92.08C207.358 92.624 207.178 93.08 206.818 93.448C206.458 93.816 205.886 94 205.102 94ZM205.042 91.12H204.238V93.1H205.03C205.902 93.1 206.338 92.772 206.338 92.116C206.338 91.452 205.906 91.12 205.042 91.12ZM213.565 94H212.605V91.72H209.605V94H208.645V88.6H209.605V90.82H212.605V88.6H213.565V94ZM215.734 93.328C215.206 92.784 214.942 92.108 214.942 91.3C214.942 90.484 215.206 89.812 215.734 89.284C216.27 88.748 216.966 88.48 217.822 88.48C218.678 88.48 219.37 88.748 219.898 89.284C220.434 89.812 220.702 90.484 220.702 91.3C220.702 92.116 220.434 92.792 219.898 93.328C219.37 93.856 218.678 94.12 217.822 94.12C216.974 94.12 216.278 93.856 215.734 93.328ZM216.49 89.92C216.138 90.272 215.962 90.732 215.962 91.3C215.962 91.868 216.134 92.328 216.478 92.68C216.83 93.04 217.278 93.22 217.822 93.22C218.366 93.22 218.81 93.044 219.154 92.692C219.506 92.332 219.682 91.868 219.682 91.3C219.682 90.748 219.506 90.288 219.154 89.92C218.81 89.56 218.366 89.38 217.822 89.38C217.278 89.38 216.834 89.56 216.49 89.92ZM226.239 92.524L226.695 93.22C226.231 93.82 225.539 94.12 224.619 94.12C223.755 94.12 223.055 93.864 222.519 93.352C221.991 92.84 221.727 92.156 221.727 91.3C221.727 90.508 221.987 89.84 222.507 89.296C223.027 88.752 223.679 88.48 224.463 88.48C225.407 88.48 226.115 88.716 226.587 89.188L226.143 89.944C225.727 89.568 225.211 89.38 224.595 89.38C224.091 89.38 223.655 89.564 223.287 89.932C222.927 90.292 222.747 90.748 222.747 91.3C222.747 91.884 222.931 92.348 223.299 92.692C223.675 93.044 224.139 93.22 224.691 93.22C225.315 93.22 225.831 92.988 226.239 92.524ZM229.172 89.56H227.192V88.6H232.112V89.56H230.132V94H229.172V89.56ZM234.985 94H233.161V88.6H234.121V90.22H235.105C235.841 90.22 236.381 90.388 236.725 90.724C237.069 91.052 237.241 91.504 237.241 92.08C237.241 92.624 237.061 93.08 236.701 93.448C236.341 93.816 235.769 94 234.985 94ZM234.925 91.12H234.121V93.1H234.913C235.785 93.1 236.221 92.772 236.221 92.116C236.221 91.452 235.789 91.12 234.925 91.12Z" fill="#3F4C5C" fill-opacity="0.74"/>
<path d="M270.78 85.6H271.812L268.908 92.08C268.612 92.752 268.3 93.24 267.972 93.544C267.652 93.848 267.268 94 266.82 94C266.388 94 266.048 93.9 265.8 93.7L266.16 92.836C266.368 92.98 266.584 93.052 266.808 93.052C267.216 93.052 267.56 92.768 267.84 92.2L267.984 91.888L264.18 85.6H265.332L268.476 90.868L270.78 85.6ZM275.813 92.524L276.269 93.22C275.805 93.82 275.113 94.12 274.193 94.12C273.329 94.12 272.629 93.864 272.093 93.352C271.565 92.84 271.301 92.156 271.301 91.3C271.301 90.508 271.561 89.84 272.081 89.296C272.601 88.752 273.253 88.48 274.037 88.48C274.981 88.48 275.689 88.716 276.161 89.188L275.717 89.944C275.301 89.568 274.785 89.38 274.169 89.38C273.665 89.38 273.229 89.564 272.861 89.932C272.501 90.292 272.321 90.748 272.321 91.3C272.321 91.884 272.505 92.348 272.873 92.692C273.249 93.044 273.713 93.22 274.265 93.22C274.889 93.22 275.405 92.988 275.813 92.524ZM282.071 94H281.111V89.56H279.215L279.155 90.472C279.091 91.216 278.995 91.836 278.867 92.332C278.747 92.82 278.587 93.188 278.387 93.436C278.195 93.676 277.991 93.844 277.775 93.94C277.559 94.028 277.295 94.072 276.983 94.072L276.911 93.136C276.999 93.144 277.091 93.132 277.187 93.1C277.283 93.06 277.387 92.98 277.499 92.86C277.619 92.74 277.723 92.58 277.811 92.38C277.907 92.18 277.991 91.9 278.063 91.54C278.143 91.172 278.195 90.752 278.219 90.28L278.315 88.6H282.071V94ZM284.234 93.328C283.706 92.784 283.442 92.108 283.442 91.3C283.442 90.484 283.706 89.812 284.234 89.284C284.77 88.748 285.466 88.48 286.322 88.48C287.178 88.48 287.87 88.748 288.398 89.284C288.934 89.812 289.202 90.484 289.202 91.3C289.202 92.116 288.934 92.792 288.398 93.328C287.87 93.856 287.178 94.12 286.322 94.12C285.474 94.12 284.778 93.856 284.234 93.328ZM284.99 89.92C284.638 90.272 284.462 90.732 284.462 91.3C284.462 91.868 284.634 92.328 284.978 92.68C285.33 93.04 285.778 93.22 286.322 93.22C286.866 93.22 287.31 93.044 287.654 92.692C288.006 92.332 288.182 91.868 288.182 91.3C288.182 90.748 288.006 90.288 287.654 89.92C287.31 89.56 286.866 89.38 286.322 89.38C285.778 89.38 285.334 89.56 284.99 89.92ZM290.587 94V88.6C290.627 88.6 290.683 88.6 290.755 88.6C290.827 88.592 290.931 88.588 291.067 88.588C291.203 88.58 291.327 88.576 291.439 88.576C292.031 88.56 292.399 88.552 292.543 88.552C294.095 88.552 294.871 89.016 294.871 89.944C294.871 90.264 294.771 90.54 294.571 90.772C294.371 90.996 294.111 91.132 293.791 91.18V91.204C294.631 91.356 295.051 91.78 295.051 92.476C295.051 93.524 294.223 94.048 292.567 94.048C292.487 94.048 292.135 94.04 291.511 94.024C291.391 94.024 291.259 94.02 291.115 94.012C290.971 94.012 290.859 94.008 290.779 94C290.699 94 290.635 94 290.587 94ZM292.699 91.576H291.547V93.232C292.123 93.256 292.491 93.268 292.651 93.268C293.571 93.268 294.031 92.98 294.031 92.404C294.031 91.852 293.587 91.576 292.699 91.576ZM292.615 89.332C292.383 89.332 292.027 89.344 291.547 89.368V90.976H292.759C293.087 90.976 293.351 90.9 293.551 90.748C293.751 90.596 293.851 90.392 293.851 90.136C293.851 89.6 293.439 89.332 292.615 89.332ZM300.596 89.98L297.476 94H296.516V88.6H297.476V92.62L300.596 88.6H301.556V94H300.596V89.98ZM305.666 88.6H307.346V94H306.386V92.2H305.342L304.021 94H302.858L304.418 91.96C304.09 91.888 303.814 91.712 303.59 91.432C303.366 91.144 303.254 90.8 303.254 90.4C303.254 89.848 303.454 89.412 303.854 89.092C304.254 88.764 304.858 88.6 305.666 88.6ZM304.274 90.424C304.274 90.68 304.374 90.892 304.574 91.06C304.774 91.22 305.01 91.3 305.282 91.3H306.386V89.5H305.51C305.102 89.5 304.794 89.584 304.586 89.752C304.378 89.92 304.274 90.144 304.274 90.424ZM315.866 89.98L312.746 94H311.786V88.6H312.746V92.62L315.866 88.6H316.826V94H315.866V89.98ZM322.723 92.524L323.179 93.22C322.715 93.82 322.023 94.12 321.103 94.12C320.239 94.12 319.539 93.864 319.003 93.352C318.475 92.84 318.211 92.156 318.211 91.3C318.211 90.508 318.471 89.84 318.991 89.296C319.511 88.752 320.163 88.48 320.947 88.48C321.891 88.48 322.599 88.716 323.071 89.188L322.627 89.944C322.211 89.568 321.695 89.38 321.079 89.38C320.575 89.38 320.139 89.564 319.771 89.932C319.411 90.292 319.231 90.748 319.231 91.3C319.231 91.884 319.415 92.348 319.783 92.692C320.159 93.044 320.623 93.22 321.175 93.22C321.799 93.22 322.315 92.988 322.723 92.524ZM329.29 94H328.33V89.5H325.39V94H324.43V88.6H329.29V94ZM331.46 93.328C330.932 92.784 330.668 92.108 330.668 91.3C330.668 90.484 330.932 89.812 331.46 89.284C331.996 88.748 332.692 88.48 333.548 88.48C334.404 88.48 335.096 88.748 335.624 89.284C336.16 89.812 336.428 90.484 336.428 91.3C336.428 92.116 336.16 92.792 335.624 93.328C335.096 93.856 334.404 94.12 333.548 94.12C332.7 94.12 332.004 93.856 331.46 93.328ZM332.216 89.92C331.864 90.272 331.688 90.732 331.688 91.3C331.688 91.868 331.86 92.328 332.204 92.68C332.556 93.04 333.004 93.22 333.548 93.22C334.092 93.22 334.536 93.044 334.88 92.692C335.232 92.332 335.408 91.868 335.408 91.3C335.408 90.748 335.232 90.288 334.88 89.92C334.536 89.56 334.092 89.38 333.548 89.38C333.004 89.38 332.56 89.56 332.216 89.92ZM342.258 94H341.298V89.56H339.402L339.342 90.472C339.278 91.216 339.182 91.836 339.054 92.332C338.934 92.82 338.774 93.188 338.574 93.436C338.382 93.676 338.178 93.844 337.962 93.94C337.746 94.028 337.482 94.072 337.17 94.072L337.098 93.136C337.186 93.144 337.278 93.132 337.374 93.1C337.47 93.06 337.574 92.98 337.686 92.86C337.806 92.74 337.91 92.58 337.998 92.38C338.094 92.18 338.178 91.9 338.25 91.54C338.33 91.172 338.382 90.752 338.406 90.28L338.502 88.6H342.258V94ZM345.813 94H343.989V88.6H344.949V90.22H345.933C346.669 90.22 347.209 90.388 347.553 90.724C347.897 91.052 348.069 91.504 348.069 92.08C348.069 92.624 347.889 93.08 347.529 93.448C347.169 93.816 346.597 94 345.813 94ZM345.753 91.12H344.949V93.1H345.741C346.613 93.1 347.049 92.772 347.049 92.116C347.049 91.452 346.617 91.12 345.753 91.12ZM351.144 94.12C350.736 94.12 350.304 94.052 349.848 93.916C349.408 93.772 349.096 93.596 348.912 93.388L349.404 92.668C349.62 92.844 349.876 92.988 350.172 93.1C350.476 93.204 350.752 93.256 351 93.256C351.416 93.256 351.756 93.176 352.02 93.016C352.284 92.848 352.416 92.632 352.416 92.368C352.416 92.144 352.32 91.972 352.128 91.852C351.944 91.732 351.688 91.672 351.36 91.672H350.448V90.892H351.3C351.572 90.892 351.796 90.82 351.972 90.676C352.148 90.524 352.236 90.34 352.236 90.124C352.236 89.884 352.132 89.696 351.924 89.56C351.716 89.416 351.436 89.344 351.084 89.344C350.516 89.344 349.976 89.544 349.464 89.944L349.092 89.2C349.308 88.976 349.608 88.8 349.992 88.672C350.384 88.544 350.796 88.48 351.228 88.48C351.868 88.48 352.364 88.608 352.716 88.864C353.076 89.12 353.256 89.476 353.256 89.932C353.256 90.556 352.94 90.98 352.308 91.204V91.228C352.66 91.268 352.936 91.408 353.136 91.648C353.336 91.88 353.436 92.164 353.436 92.5C353.436 92.996 353.224 93.392 352.8 93.688C352.384 93.976 351.832 94.12 351.144 94.12ZM355.331 93.328C354.803 92.784 354.539 92.108 354.539 91.3C354.539 90.484 354.803 89.812 355.331 89.284C355.867 88.748 356.563 88.48 357.419 88.48C358.275 88.48 358.967 88.748 359.495 89.284C360.031 89.812 360.299 90.484 360.299 91.3C360.299 92.116 360.031 92.792 359.495 93.328C358.967 93.856 358.275 94.12 357.419 94.12C356.571 94.12 355.875 93.856 355.331 93.328ZM356.087 89.92C355.735 90.272 355.559 90.732 355.559 91.3C355.559 91.868 355.731 92.328 356.075 92.68C356.427 93.04 356.875 93.22 357.419 93.22C357.963 93.22 358.407 93.044 358.751 92.692C359.103 92.332 359.279 91.868 359.279 91.3C359.279 90.748 359.103 90.288 358.751 89.92C358.407 89.56 357.963 89.38 357.419 89.38C356.875 89.38 356.431 89.56 356.087 89.92ZM361.684 94V88.6C361.724 88.6 361.78 88.6 361.852 88.6C361.924 88.592 362.028 88.588 362.164 88.588C362.3 88.58 362.424 88.576 362.536 88.576C363.128 88.56 363.496 88.552 363.64 88.552C365.192 88.552 365.968 89.016 365.968 89.944C365.968 90.264 365.868 90.54 365.668 90.772C365.468 90.996 365.208 91.132 364.888 91.18V91.204C365.728 91.356 366.148 91.78 366.148 92.476C366.148 93.524 365.32 94.048 363.664 94.048C363.584 94.048 363.232 94.04 362.608 94.024C362.488 94.024 362.356 94.02 362.212 94.012C362.068 94.012 361.956 94.008 361.876 94C361.796 94 361.732 94 361.684 94ZM363.796 91.576H362.644V93.232C363.22 93.256 363.588 93.268 363.748 93.268C364.668 93.268 365.128 92.98 365.128 92.404C365.128 91.852 364.684 91.576 363.796 91.576ZM363.712 89.332C363.48 89.332 363.124 89.344 362.644 89.368V90.976H363.856C364.184 90.976 364.448 90.9 364.648 90.748C364.848 90.596 364.948 90.392 364.948 90.136C364.948 89.6 364.536 89.332 363.712 89.332ZM367.902 89.74L367.65 88.972C368.186 88.644 368.786 88.48 369.45 88.48C370.178 88.48 370.706 88.66 371.034 89.02C371.362 89.38 371.526 89.936 371.526 90.688V94H370.614V93.304C370.19 93.824 369.614 94.084 368.886 94.084C368.39 94.084 367.99 93.936 367.686 93.64C367.382 93.336 367.23 92.928 367.23 92.416C367.23 91.888 367.418 91.472 367.794 91.168C368.17 90.856 368.662 90.7 369.27 90.7C369.838 90.7 370.286 90.816 370.614 91.048C370.614 90.44 370.53 90.004 370.362 89.74C370.194 89.476 369.87 89.344 369.39 89.344C368.902 89.344 368.406 89.476 367.902 89.74ZM369.222 93.22C369.758 93.22 370.222 92.988 370.614 92.524V91.84C370.278 91.6 369.874 91.48 369.402 91.48C369.074 91.48 368.798 91.56 368.574 91.72C368.358 91.872 368.25 92.088 368.25 92.368C368.25 92.632 368.334 92.84 368.502 92.992C368.678 93.144 368.918 93.22 369.222 93.22ZM378.054 94H377.094V91.72H374.094V94H373.134V88.6H374.094V90.82H377.094V88.6H378.054V94ZM383.87 89.98L380.75 94H379.79V88.6H380.75V92.62L383.87 88.6H384.83V94H383.87V89.98ZM388.939 88.6H390.619V94H389.659V92.2H388.615L387.295 94H386.131L387.691 91.96C387.363 91.888 387.087 91.712 386.863 91.432C386.639 91.144 386.527 90.8 386.527 90.4C386.527 89.848 386.727 89.412 387.127 89.092C387.527 88.764 388.131 88.6 388.939 88.6ZM387.547 90.424C387.547 90.68 387.647 90.892 387.847 91.06C388.047 91.22 388.283 91.3 388.555 91.3H389.659V89.5H388.783C388.375 89.5 388.067 89.584 387.859 89.752C387.651 89.92 387.547 90.144 387.547 90.424Z" fill="#3F4C5C" fill-opacity="0.74"/>
<rect x="0.75" y="0.75" width="410.5" height="101.5" rx="3.25" stroke="#3F4C5C" stroke-opacity="0.49" stroke-width="1.5"/>
<rect x="17.5" y="31.5" width="36" height="36" rx="1.5" stroke="#3F4C5C" stroke-opacity="0.49"/>
<path d="M80.36 57H78.66V51.8H76.04L72.42 57H70.5L74.38 51.5C73.5533 51.1667 72.8867 50.66 72.38 49.98C71.8733 49.2867 71.62 48.4867 71.62 47.58C71.62 46.2333 72.08 45.1267 73 44.26C73.92 43.38 75.28 42.94 77.08 42.94C77.1333 42.94 77.6933 42.9533 78.76 42.98C79.2933 42.9933 79.8267 43 80.36 43V57ZM75.84 50.2H78.66V44.6C77.74 44.56 77.1067 44.54 76.76 44.54C75.72 44.54 74.9 44.8133 74.3 45.36C73.7133 45.8933 73.42 46.6 73.42 47.48C73.42 48.2 73.66 48.8067 74.14 49.3C74.62 49.8067 75.1867 50.1067 75.84 50.2ZM96.5931 57H94.9931V53.2H89.9931V57H88.3931V48H89.9931V51.7H94.9931V48H96.5931V57ZM106.587 54.76L107.087 56.02C106.22 56.8067 105.094 57.2 103.707 57.2C102.24 57.2 101.074 56.7733 100.207 55.92C99.3269 55.0667 98.8869 53.9267 98.8869 52.5C98.8869 51.1533 99.3002 50.0333 100.127 49.14C100.94 48.2467 102.074 47.8 103.527 47.8C104.727 47.8 105.72 48.1867 106.507 48.96C107.307 49.72 107.707 50.7067 107.707 51.92C107.707 52.3067 107.674 52.6667 107.607 53H100.687C100.754 53.84 101.067 54.5 101.627 54.98C102.2 55.46 102.934 55.7 103.827 55.7C105 55.7 105.92 55.3867 106.587 54.76ZM103.447 49.3C102.66 49.3 102.007 49.52 101.487 49.96C100.98 50.4 100.68 50.98 100.587 51.7H106.047C106.007 50.9533 105.754 50.3667 105.287 49.94C104.834 49.5133 104.22 49.3 103.447 49.3ZM115.97 61H114.37V48H115.97V49.06C116.29 48.6867 116.73 48.3867 117.29 48.16C117.85 47.92 118.43 47.8 119.03 47.8C120.31 47.8 121.316 48.2267 122.05 49.08C122.81 49.92 123.19 51.0133 123.19 52.36C123.19 53.7333 122.756 54.8867 121.89 55.82C121.036 56.74 119.91 57.2 118.51 57.2C117.43 57.2 116.583 56.9933 115.97 56.58V61ZM118.57 49.3C117.503 49.3 116.636 49.7133 115.97 50.54V55C116.676 55.4667 117.476 55.7 118.37 55.7C119.316 55.7 120.07 55.4 120.63 54.8C121.203 54.1867 121.49 53.3933 121.49 52.42C121.49 51.4733 121.23 50.72 120.71 50.16C120.19 49.5867 119.476 49.3 118.57 49.3ZM126.203 55.88C125.323 54.9733 124.883 53.8467 124.883 52.5C124.883 51.14 125.323 50.02 126.203 49.14C127.096 48.2467 128.256 47.8 129.683 47.8C131.11 47.8 132.263 48.2467 133.143 49.14C134.036 50.02 134.483 51.14 134.483 52.5C134.483 53.86 134.036 54.9867 133.143 55.88C132.263 56.76 131.11 57.2 129.683 57.2C128.27 57.2 127.11 56.76 126.203 55.88ZM127.463 50.2C126.876 50.7867 126.583 51.5533 126.583 52.5C126.583 53.4467 126.87 54.2133 127.443 54.8C128.03 55.4 128.776 55.7 129.683 55.7C130.59 55.7 131.33 55.4067 131.903 54.82C132.49 54.22 132.783 53.4467 132.783 52.5C132.783 51.58 132.49 50.8133 131.903 50.2C131.33 49.6 130.59 49.3 129.683 49.3C128.776 49.3 128.036 49.6 127.463 50.2ZM143.752 42.8L144.612 44.06C144.292 44.5 143.905 44.8 143.452 44.96C142.958 45.1333 142.398 45.2667 141.772 45.36C141.158 45.4533 140.578 45.62 140.032 45.86C138.672 46.4867 137.912 47.9333 137.752 50.2H137.792C138.085 49.5733 138.558 49.0667 139.212 48.68C139.878 48.2933 140.592 48.1 141.352 48.1C142.632 48.1 143.645 48.5067 144.392 49.32C145.152 50.1333 145.532 51.22 145.532 52.58C145.532 53.86 145.098 54.9533 144.232 55.86C143.378 56.7533 142.272 57.2 140.912 57.2C139.445 57.2 138.285 56.7 137.432 55.7C136.578 54.7133 136.152 53.3467 136.152 51.6C136.152 47.7067 137.265 45.2867 139.492 44.34C139.998 44.1133 140.585 43.9467 141.252 43.84C141.772 43.7467 142.145 43.6733 142.372 43.62C142.598 43.5667 142.838 43.4733 143.092 43.34C143.358 43.2067 143.578 43.0267 143.752 42.8ZM137.852 51.9C137.852 53.0467 138.132 53.9667 138.692 54.66C139.252 55.3533 139.978 55.7 140.872 55.7C141.738 55.7 142.445 55.4067 142.992 54.82C143.552 54.2467 143.832 53.5267 143.832 52.66C143.832 51.74 143.572 51 143.052 50.44C142.545 49.88 141.845 49.6 140.952 49.6C140.138 49.6 139.458 49.8267 138.912 50.28C138.338 50.7467 137.985 51.2867 137.852 51.9ZM148.547 55.88C147.667 54.9733 147.227 53.8467 147.227 52.5C147.227 51.14 147.667 50.02 148.547 49.14C149.44 48.2467 150.6 47.8 152.027 47.8C153.453 47.8 154.607 48.2467 155.487 49.14C156.38 50.02 156.827 51.14 156.827 52.5C156.827 53.86 156.38 54.9867 155.487 55.88C154.607 56.76 153.453 57.2 152.027 57.2C150.613 57.2 149.453 56.76 148.547 55.88ZM149.807 50.2C149.22 50.7867 148.927 51.5533 148.927 52.5C148.927 53.4467 149.213 54.2133 149.787 54.8C150.373 55.4 151.12 55.7 152.027 55.7C152.933 55.7 153.673 55.4067 154.247 54.82C154.833 54.22 155.127 53.4467 155.127 52.5C155.127 51.58 154.833 50.8133 154.247 50.2C153.673 49.6 152.933 49.3 152.027 49.3C151.12 49.3 150.38 49.6 149.807 50.2ZM160.944 49.6H157.644V48H165.844V49.6H162.544V57H160.944V49.6Z" fill="#3F4C5C"/>
<circle cx="251" cy="91" r="3" fill="#3F4C5C" fill-opacity="0.74"/>
<defs>
<clipPath id="clip0_802_37449">
<rect width="63" height="60" fill="white" transform="translate(329 15)"/>
</clipPath>
</defs>
</svg>
