<svg width="54" height="41" viewBox="0 0 54 41" fill="none" xmlns="http://www.w3.org/2000/svg">
<g clip-path="url(#clip0_802_37462)">
<path d="M40.5615 24.8359H44.4896C44.6019 24.8359 44.8638 24.7984 44.976 24.7984C45.7242 24.6482 46.3602 23.9723 46.3602 23.0335C46.3602 22.1323 45.7242 21.4564 44.976 21.2686C44.8638 21.2311 44.6393 21.2311 44.4896 21.2311H40.5615V24.8359Z" fill="url(#paint0_linear_802_37462)"/>
<path d="M44.0405 -0.0599365C40.2994 -0.0599365 37.2317 2.98164 37.2317 6.77422V13.8712H46.8463C47.0708 13.8712 47.3326 13.8712 47.5197 13.9088C49.6895 14.0214 51.2982 15.1479 51.2982 17.1006C51.2982 18.6401 50.2132 19.9544 48.1931 20.2172V20.2923C50.4003 20.4425 52.0838 21.6817 52.0838 23.5968C52.0838 25.662 50.2132 27.0138 47.7441 27.0138H37.1943V40.9075H47.183C50.9241 40.9075 53.9917 37.8659 53.9917 34.0733V-0.0599365H44.0405Z" fill="url(#paint1_linear_802_37462)"/>
<path d="M45.8738 17.5511C45.8738 16.6499 45.2379 16.0491 44.4896 15.9365C44.4148 15.9365 44.2278 15.8989 44.1155 15.8989H40.5615V19.2034H44.1155C44.2278 19.2034 44.4522 19.2034 44.4896 19.1658C45.2379 19.0532 45.8738 18.4523 45.8738 17.5511Z" fill="url(#paint2_linear_802_37462)"/>
<path d="M6.40573 -0.0600586C2.66466 -0.0600586 -0.403019 2.98152 -0.403019 6.7741V23.6342C1.50493 24.573 3.48769 25.1738 5.47046 25.1738C7.82733 25.1738 9.09929 23.7468 9.09929 21.7942V13.8336H14.9354V21.7567C14.9354 24.8358 13.0274 27.3517 6.55537 27.3517C2.62725 27.3517 -0.44043 26.488 -0.44043 26.488V40.8698H9.54822C13.2893 40.8698 16.357 37.8282 16.357 34.0356V-0.0600586H6.40573Z" fill="url(#paint3_linear_802_37462)"/>
<path d="M25.2228 -0.0599365C21.4817 -0.0599365 18.4141 2.98164 18.4141 6.77422V15.7112C20.135 14.2467 23.1278 13.308 27.9538 13.5333C30.5351 13.6459 33.3035 14.3594 33.3035 14.3594V17.2508C31.9193 16.5373 30.2732 15.899 28.1408 15.7487C24.4746 15.4859 22.2674 17.2883 22.2674 20.4425C22.2674 23.6343 24.4746 25.4367 28.1408 25.1363C30.2732 24.9861 31.9193 24.3102 33.3035 23.6343V26.5257C33.3035 26.5257 30.5725 27.2391 27.9538 27.3518C23.1278 27.5771 20.135 26.6383 18.4141 25.1739V40.945H28.4027C32.1438 40.945 35.2115 37.9034 35.2115 34.1109V-0.0599365H25.2228Z" fill="url(#paint4_linear_802_37462)"/>
</g>
<defs>
<linearGradient id="paint0_linear_802_37462" x1="37.2256" y1="23.038" x2="54.0372" y2="23.038" gradientUnits="userSpaceOnUse">
<stop stop-color="#007940"/>
<stop offset="0.229" stop-color="#00873F"/>
<stop offset="0.743" stop-color="#40A737"/>
<stop offset="1" stop-color="#5CB531"/>
</linearGradient>
<linearGradient id="paint1_linear_802_37462" x1="37.225" y1="20.4072" x2="54.0377" y2="20.4072" gradientUnits="userSpaceOnUse">
<stop stop-color="#007940"/>
<stop offset="0.229" stop-color="#00873F"/>
<stop offset="0.743" stop-color="#40A737"/>
<stop offset="1" stop-color="#5CB531"/>
</linearGradient>
<linearGradient id="paint2_linear_802_37462" x1="37.2252" y1="17.5463" x2="54.0372" y2="17.5463" gradientUnits="userSpaceOnUse">
<stop stop-color="#007940"/>
<stop offset="0.229" stop-color="#00873F"/>
<stop offset="0.743" stop-color="#40A737"/>
<stop offset="1" stop-color="#5CB531"/>
</linearGradient>
<linearGradient id="paint3_linear_802_37462" x1="-0.410875" y1="20.4071" x2="16.6607" y2="20.4071" gradientUnits="userSpaceOnUse">
<stop stop-color="#1F286F"/>
<stop offset="0.475" stop-color="#004E94"/>
<stop offset="0.826" stop-color="#0066B1"/>
<stop offset="1" stop-color="#006FBC"/>
</linearGradient>
<linearGradient id="paint4_linear_802_37462" x1="18.3172" y1="20.4072" x2="34.898" y2="20.4072" gradientUnits="userSpaceOnUse">
<stop stop-color="#6C2C2F"/>
<stop offset="0.173" stop-color="#882730"/>
<stop offset="0.573" stop-color="#BE1833"/>
<stop offset="0.859" stop-color="#DC0436"/>
<stop offset="1" stop-color="#E60039"/>
</linearGradient>
<clipPath id="clip0_802_37462">
<rect width="54" height="41" fill="white"/>
</clipPath>
</defs>
</svg>
