<svg width="418" height="67" viewBox="0 0 418 67" fill="none" xmlns="http://www.w3.org/2000/svg">
<g clip-path="url(#clip0_854_1232)">
<path d="M74.2405 8.13574V9.25486H74.5627C76.4202 9.25486 78.1639 10.4309 78.1639 13.1244C78.1639 15.9506 76.5718 17.2025 74.6006 17.2025H74.2595V18.3785H73.3687V17.2025H73.0085C71.0374 17.2025 69.4453 15.9316 69.4453 13.1244C69.4453 10.4499 71.189 9.25486 73.0465 9.25486H73.3687V8.13574H74.2405ZM73.3497 10.0326H73.0654C71.625 10.0326 70.3172 10.9051 70.3172 13.2002C70.3172 15.5523 71.5491 16.4248 73.0654 16.4248H73.3497V10.0326ZM74.2405 16.4248H74.5248C76.0411 16.4248 77.2731 15.5523 77.2731 13.2002C77.2731 10.9051 75.9653 10.0326 74.5248 10.0326H74.2405V16.4248Z" fill="white"/>
<path d="M79.7939 8.13574H84.4944V8.91344H80.6658V12.4984H84.0774V13.2761H80.6658V17.5819H84.4944V18.3596H79.7939V8.13574Z" fill="white"/>
<path d="M92.341 8.13574V17.6008H93.0612V20.5599H92.2083V18.3785H86.4086V20.5599H85.5557V17.6008H86.2001C87.053 16.1403 87.3562 14.8884 87.3562 11.7397V8.13574H92.341ZM88.2281 8.91344V11.9673C88.2281 14.3004 87.9438 16.2731 87.1478 17.5819H91.4502V8.89447H88.2281V8.91344Z" fill="white"/>
<path d="M94.6533 8.13574H99.3538V8.91344H95.5252V12.4984H98.9368V13.2761H95.5252V17.5819H99.3538V18.3596H94.6533V8.13574Z" fill="white"/>
<path d="M101.799 18.378H100.908V8.11627H103.221C104.794 8.11627 106.158 8.78015 106.158 10.8856C106.158 12.7255 105.135 13.7308 103.277 13.7308H101.761V18.378H101.799ZM101.799 12.9531H102.955C104.415 12.9531 105.305 12.5358 105.305 10.9236C105.305 9.42507 104.509 8.89397 103.107 8.89397H101.818V12.9531H101.799Z" fill="white"/>
<path d="M110.138 8.13574L112.886 18.3975H111.995L111.18 15.2298H108.072L107.238 18.3975H106.385L109.114 8.13574H110.138ZM110.99 14.4332L109.645 9.25486H109.626L108.28 14.4332H110.99Z" fill="white"/>
<path d="M120.221 8.13574V18.3975H119.331V8.9324H115.919V13.6365C115.919 16.7852 115.483 18.4923 114.137 18.4923C113.815 18.4923 113.607 18.4734 113.36 18.4165V17.6388C113.455 17.6577 113.72 17.7146 114.005 17.7146C114.763 17.7146 115.028 16.1403 115.028 13.352V8.15471H120.221V8.13574Z" fill="white"/>
<path d="M123.121 12.4979H124.675C126.532 12.4979 127.499 13.636 127.499 15.4759C127.499 17.5814 126.305 18.378 124.732 18.378H122.249V8.11627H123.14V12.4979H123.121ZM123.121 17.6003H124.467C125.869 17.6003 126.608 16.9554 126.608 15.5138C126.608 13.9016 125.755 13.2946 124.296 13.2946H123.102V17.6003H123.121Z" fill="white"/>
<path d="M130.229 12.4984H134.19V8.13574H135.081V18.3975H134.19V13.2951H130.229V18.3975H129.338V8.13574H130.229V12.4984Z" fill="white"/>
<path d="M136.92 13.2377C136.92 10.8287 137.204 7.88867 139.915 7.88867C142.739 7.88867 142.928 10.8287 142.928 13.2377C142.928 15.8363 142.72 18.6246 139.915 18.6246C137.204 18.6246 136.92 15.8743 136.92 13.2377ZM142.056 13.2377C142.056 11.1891 141.867 8.66637 139.915 8.66637C138 8.66637 137.792 11.0184 137.792 13.2377C137.792 15.4949 138 17.828 139.915 17.828C141.848 17.8469 142.056 15.6656 142.056 13.2377Z" fill="white"/>
<path d="M144.785 8.13574H149.486V8.91344H145.657V12.4984H149.069V13.2761H145.657V17.5819H149.486V18.3596H144.785V8.13574Z" fill="white"/>
<path d="M159.986 8.13524V8.91293H156.157V18.378H155.267V8.11627H159.986V8.13524Z" fill="white"/>
<path d="M161.369 13.2377C161.369 10.8287 161.653 7.88867 164.364 7.88867C167.188 7.88867 167.377 10.8287 167.377 13.2377C167.377 15.8363 167.169 18.6246 164.364 18.6246C161.653 18.6246 161.369 15.8743 161.369 13.2377ZM166.506 13.2377C166.506 11.1891 166.316 8.66637 164.364 8.66637C162.449 8.66637 162.241 11.0184 162.241 13.2377C162.241 15.4949 162.449 17.828 164.364 17.828C166.297 17.8469 166.506 15.6656 166.506 13.2377Z" fill="white"/>
<path d="M174.94 14.9069C174.94 16.8985 174.106 18.6246 172.059 18.6246C169.349 18.6246 169.103 15.9122 169.103 12.9721C169.103 10.8667 169.368 7.88867 172.097 7.88867C173.936 7.88867 174.902 9.34922 174.902 11.0753H173.993C173.917 9.86136 173.443 8.66637 172.078 8.66637C170.202 8.66637 169.993 11.1891 169.993 13.1618C169.993 15.419 170.183 17.828 172.173 17.828C173.689 17.828 174.087 16.1208 174.087 14.8879H174.94V14.9069Z" fill="white"/>
<path d="M176.855 8.13574L179.394 15.135L181.726 8.13574H182.673L179.508 17.0697C179.167 18.0371 178.579 18.4923 177.954 18.4923C177.651 18.4923 177.423 18.4544 177.215 18.3975V17.6198C177.291 17.6388 177.499 17.7146 177.783 17.7146C178.068 17.7146 178.428 17.6198 178.636 17.0508L178.921 16.2731L175.869 8.13574H176.855Z" fill="white"/>
<path d="M189.383 8.13574V17.6008H190.103V20.5599H189.25V18.3785H183.451V20.5599H182.598V17.6008H183.242C184.095 16.1403 184.398 14.8884 184.398 11.7397V8.13574H189.383ZM185.27 8.91344V11.9673C185.27 14.3004 184.986 16.2731 184.19 17.5819H188.492V8.89447H185.27V8.91344Z" fill="white"/>
<path d="M194.671 8.13574L197.419 18.3975H196.528L195.713 15.2298H192.605L191.771 18.3975H190.918L193.647 8.13574H194.671ZM195.524 14.4332L194.178 9.25486H194.159L192.813 14.4332H195.524Z" fill="white"/>
<path d="M199.523 18.378H198.632V8.11627H200.944C202.517 8.11627 203.882 8.78015 203.882 10.8856C203.882 12.7255 202.858 13.7308 201.001 13.7308H199.485V18.378H199.523ZM199.523 12.9531H200.679C202.138 12.9531 203.029 12.5358 203.029 10.9236C203.029 9.42507 202.233 8.89397 200.83 8.89397H199.542V12.9531H199.523Z" fill="white"/>
<path d="M211.293 14.9069C211.293 16.8985 210.459 18.6246 208.412 18.6246C205.701 18.6246 205.455 15.9122 205.455 12.9721C205.455 10.8667 205.72 7.88867 208.45 7.88867C210.288 7.88867 211.255 9.34922 211.255 11.0753H210.345C210.269 9.86136 209.795 8.66637 208.431 8.66637C206.554 8.66637 206.346 11.1891 206.346 13.1618C206.346 15.419 206.535 17.828 208.526 17.828C210.042 17.828 210.44 16.1208 210.44 14.8879H211.293V14.9069Z" fill="white"/>
<path d="M215.689 18.3785H214.799V8.91344H212.486V8.13574H218.002V8.91344H215.689V18.3785Z" fill="white"/>
<path d="M219.328 8.13477H221.754C223.251 8.13477 224.408 8.89349 224.408 10.6386C224.408 11.6628 224.029 12.5923 223.005 12.9716C224.199 13.2941 224.692 14.2235 224.692 15.4375C224.692 18.0361 222.891 18.3776 221.584 18.3776H219.347V8.13477H219.328ZM220.219 12.6112H221.489C222.55 12.6112 223.517 12.2888 223.517 10.6575C223.517 9.14008 222.455 8.91246 221.394 8.91246H220.219V12.6112ZM220.219 17.5999H221.678C222.891 17.5999 223.82 17.1257 223.82 15.4185C223.82 13.7304 222.702 13.3889 221.678 13.3889H220.219V17.5999Z" fill="white"/>
<path d="M226.475 8.13574H231.175V8.91344H227.346V12.4984H230.758V13.2761H227.346V17.5819H231.175V18.3596H226.475V8.13574Z" fill="white"/>
<path d="M233.6 12.4984H237.562V8.13574H238.452V18.3975H237.562V13.2951H233.6V18.3975H232.729V8.13574H233.6V12.4984Z" fill="white"/>
<path d="M241.334 12.4984H245.295V8.13574H246.186V18.3975H245.295V13.2951H241.334V18.3975H240.462V8.13574H241.334V12.4984Z" fill="white"/>
<path d="M248.024 13.2377C248.024 10.8287 248.309 7.88867 251.019 7.88867C253.843 7.88867 254.033 10.8287 254.033 13.2377C254.033 15.8363 253.824 18.6246 251.019 18.6246C248.309 18.6246 248.024 15.8743 248.024 13.2377ZM253.161 13.2377C253.161 11.1891 252.971 8.66637 251.019 8.66637C249.105 8.66637 248.896 11.0184 248.896 13.2377C248.896 15.4949 249.105 17.828 251.019 17.828C252.933 17.8469 253.161 15.6656 253.161 13.2377Z" fill="white"/>
<path d="M255.89 8.13574H260.59V8.91344H256.762V12.4984H260.173V13.2761H256.762V17.5819H260.59V18.3596H255.89V8.13574Z" fill="white"/>
<path d="M271.148 8.13524V8.91293H267.262V12.4979H268.817C270.674 12.4979 271.641 13.636 271.641 15.4759C271.641 17.5814 270.447 18.378 268.874 18.378H266.391V8.11627H271.148V8.13524ZM267.262 17.6003H268.608C270.011 17.6003 270.75 16.9554 270.75 15.5138C270.75 13.9016 269.897 13.2946 268.438 13.2946H267.244V17.6003H267.262Z" fill="white"/>
<path d="M274.389 12.4979H276.019C276.114 10.1838 276.606 7.88867 279.013 7.88867C281.838 7.88867 282.027 10.8287 282.027 13.2377C282.027 15.8363 281.819 18.6246 279.013 18.6246C276.36 18.6246 276.019 16.026 276.019 13.2756H274.389V18.3781H273.498V8.11629H274.389V12.4979ZM281.155 13.2377C281.155 11.1891 280.966 8.66637 279.013 8.66637C277.099 8.66637 276.891 11.0184 276.891 13.2377C276.891 15.4949 277.099 17.828 279.013 17.828C280.947 17.8469 281.155 15.6656 281.155 13.2377Z" fill="white"/>
<path d="M289.873 8.13574V17.6008H290.593V20.5599H289.741V18.3785H283.941V20.5599H283.088V17.6008H283.732C284.585 16.1403 284.888 14.8884 284.888 11.7397V8.13574H289.873ZM285.76 8.91344V11.9673C285.76 14.3004 285.476 16.2731 284.68 17.5819H288.982V8.89447H285.76V8.91344Z" fill="white"/>
<path d="M297.151 8.13477V13.2562L300.885 8.13477H301.909L298.876 12.2698L302.06 18.3776H301.094L298.307 12.9906L297.151 14.4891V18.3776H296.26V14.4891L295.104 12.9906L292.318 18.3776H291.352L294.536 12.2698L291.503 8.13477H292.527L296.26 13.2562V8.13477H297.151Z" fill="white"/>
<path d="M303.255 8.13574H307.955V8.91344H304.127V12.4984H307.538V13.2761H304.127V17.5819H307.955V18.3596H303.255V8.13574Z" fill="white"/>
<path d="M312.012 18.3785H311.121V8.91344H308.809V8.13574H314.324V8.91344H312.012V18.3785Z" fill="white"/>
<path d="M316.559 12.4984H320.521V8.13574H321.411V18.3975H320.521V13.2951H316.559V18.3975H315.688V8.13574H316.559V12.4984Z" fill="white"/>
<path d="M323.25 13.2377C323.25 10.8287 323.534 7.88867 326.245 7.88867C329.069 7.88867 329.258 10.8287 329.258 13.2377C329.258 15.8363 329.05 18.6246 326.245 18.6246C323.534 18.6246 323.25 15.8743 323.25 13.2377ZM328.386 13.2377C328.386 11.1891 328.197 8.66637 326.245 8.66637C324.33 8.66637 324.122 11.0184 324.122 13.2377C324.122 15.4949 324.33 17.828 326.245 17.828C328.159 17.8469 328.386 15.6656 328.386 13.2377Z" fill="white"/>
<path d="M331.116 8.13574H335.817V8.91344H331.988V12.4984H335.4V13.2761H331.988V17.5819H335.817V18.3596H331.116V8.13574Z" fill="white"/>
<path d="M341.673 8.13574L344.213 15.135L346.544 8.13574H347.492L344.327 17.0697C343.985 18.0371 343.398 18.4923 342.772 18.4923C342.469 18.4923 342.242 18.4544 342.033 18.3975V17.6198C342.109 17.6388 342.317 17.7146 342.602 17.7146C342.886 17.7146 343.246 17.6198 343.455 17.0508L343.739 16.2731L340.688 8.13574H341.673Z" fill="white"/>
<path d="M349.463 8.13574V11.3603C349.463 12.4225 349.899 12.6881 350.979 12.6881C351.719 12.6881 352.439 12.6312 353.026 12.5174V8.15471H353.898V18.4165H353.026V13.333C352.306 13.4658 351.737 13.5037 350.714 13.5037C349.084 13.5037 348.572 12.6122 348.572 11.3603V8.17368H349.463V8.13574Z" fill="white"/>
<path d="M356.817 18.378H355.926V8.11627H358.238C359.811 8.11627 361.176 8.78015 361.176 10.8856C361.176 12.7255 360.152 13.7308 358.295 13.7308H356.779V18.378H356.817ZM356.817 12.9531H357.973C359.432 12.9531 360.323 12.5358 360.323 10.9236C360.323 9.42507 359.527 8.89397 358.124 8.89397H356.836V12.9531H356.817Z" fill="white"/>
<path d="M362.9 8.13574H367.601V8.91344H363.772V12.4984H367.184V13.2761H363.772V17.5819H367.601V18.3596H362.9V8.13574Z" fill="white"/>
<path d="M374.102 8.13574V13.2571L377.836 8.13574H378.859L375.827 12.2708L379.011 18.3785H378.044L375.258 12.9916L374.102 14.4901V18.3785H373.23V14.4901L372.074 12.9916L369.288 18.3785H368.321L371.505 12.2708L368.473 8.13574H369.496L373.23 13.2571V8.13574H374.102Z" fill="white"/>
<path d="M386.498 8.13574V17.6008H387.218V20.5599H386.366V18.3785H380.566V20.5599H379.713V17.6008H380.357C381.21 16.1403 381.513 14.8884 381.513 11.7397V8.13574H386.498ZM382.385 8.91344V11.9673C382.385 14.3004 382.101 16.2731 381.305 17.5819H385.626V8.89447H382.385V8.91344Z" fill="white"/>
<path d="M388.811 8.13574H393.53V8.91344H389.701V12.4984H393.113V13.2761H389.701V17.5819H393.53V18.3596H388.811V8.13574Z" fill="white"/>
<path d="M395.936 12.4984H399.898V8.13574H400.788V18.3975H399.898V13.2951H395.936V18.3975H395.064V8.13574H395.936V12.4984Z" fill="white"/>
<path d="M403.651 16.937H403.689L407.46 8.13574H408.56V18.3975H407.669V9.61526H407.65L403.859 18.3975H402.798V8.13574H403.67V16.937H403.651Z" fill="white"/>
<path d="M410.55 8.13574H415.269V8.91344H411.441V12.4984H414.852V13.2761H411.441V17.5819H415.269V18.3596H410.55V8.13574Z" fill="white"/>
<path d="M71.8909 32.5278L70.5073 33.628L71.8909 34.7092V35.5438L69.9766 34.1022V33.1348L71.8909 31.6932V32.5278ZM74.4306 32.5278L73.047 33.628L74.4306 34.7092V35.5438L72.5163 34.1022V33.1348L74.4306 31.6932V32.5278Z" fill="white"/>
<path d="M81.3483 27.103V27.8806H77.5197V37.3457H76.6289V27.084H81.3483V27.103Z" fill="white"/>
<path d="M82.751 32.2055C82.751 29.7965 83.0353 26.8564 85.7456 26.8564C88.5697 26.8564 88.7592 29.7965 88.7592 32.2055C88.7592 34.8041 88.5507 37.5924 85.7456 37.5924C83.0353 37.5924 82.751 34.842 82.751 32.2055ZM87.8873 32.2055C87.8873 30.1569 87.6978 27.6341 85.7456 27.6341C83.8313 27.6341 83.6228 29.9862 83.6228 32.2055C83.6228 34.4627 83.8313 36.7957 85.7456 36.7957C87.6789 36.8147 87.8873 34.6334 87.8873 32.2055Z" fill="white"/>
<path d="M96.322 33.8747C96.322 35.8663 95.4881 37.5924 93.4411 37.5924C90.7308 37.5924 90.4844 34.88 90.4844 31.9399C90.4844 29.8344 90.7497 26.8564 93.479 26.8564C95.3175 26.8564 96.2841 28.317 96.2841 30.0431H95.3744C95.2985 28.8291 94.8247 27.6341 93.4601 27.6341C91.5837 27.6341 91.3752 30.1569 91.3752 32.1296C91.3752 34.3868 91.5647 36.7957 93.5548 36.7957C95.0711 36.7957 95.4691 35.0886 95.4691 33.8557H96.322V33.8747Z" fill="white"/>
<path d="M98.2356 27.103L100.775 34.1023L103.107 27.103H104.054L100.889 36.037C100.548 37.0044 99.9603 37.4596 99.3349 37.4596C99.0316 37.4596 98.8042 37.4406 98.5957 37.3648V36.5871C98.6715 36.606 98.88 36.663 99.1643 36.663C99.4486 36.663 99.8087 36.5871 100.017 35.9991L100.301 35.2214L97.25 27.084H98.2356V27.103Z" fill="white"/>
<path d="M110.764 27.1035V36.5686H111.484V39.5276H110.631V37.3463H104.831V39.5276H103.979V36.5686H104.623C105.476 35.1081 105.779 33.8562 105.779 30.7075V27.1035H110.764ZM106.651 27.8812V30.9351C106.651 33.2682 106.367 35.2408 105.571 36.5496H109.873V27.8622H106.651V27.8812Z" fill="white"/>
<path d="M116.071 27.1035L118.819 37.3653H117.929L117.114 34.1976H114.005L113.171 37.3653H112.318L115.048 27.1035H116.071ZM116.924 33.4009L115.578 28.2226H115.559L114.214 33.4009H116.924Z" fill="white"/>
<path d="M120.904 37.3458H120.014V27.084H122.326C123.899 27.084 125.264 27.7479 125.264 29.8534C125.264 31.6933 124.24 32.6986 122.383 32.6986H120.867V37.3458H120.904ZM120.904 31.9209H122.061C123.52 31.9209 124.411 31.5036 124.411 29.8913C124.411 28.3928 123.615 27.8617 122.212 27.8617H120.923V31.9209H120.904Z" fill="white"/>
<path d="M132.693 33.8747C132.693 35.8663 131.859 37.5924 129.812 37.5924C127.102 37.5924 126.855 34.88 126.855 31.9399C126.855 29.8344 127.121 26.8564 129.85 26.8564C131.689 26.8564 132.655 28.317 132.655 30.0431H131.745C131.67 28.8291 131.196 27.6341 129.831 27.6341C127.955 27.6341 127.746 30.1569 127.746 32.1296C127.746 34.3868 127.936 36.7957 129.926 36.7957C131.442 36.7957 131.84 35.0886 131.84 33.8557H132.693V33.8747Z" fill="white"/>
<path d="M137.071 37.3463H136.18V27.8812H133.868V27.1035H139.384V27.8812H137.071V37.3463Z" fill="white"/>
<path d="M140.729 27.1035H143.156C144.653 27.1035 145.809 27.8622 145.809 29.6073C145.809 30.6316 145.43 31.561 144.406 31.9404C145.601 32.2628 146.093 33.1923 146.093 34.4062C146.093 37.0049 144.293 37.3463 142.985 37.3463H140.748V27.1035H140.729ZM141.601 31.58H142.871C143.933 31.58 144.899 31.2575 144.899 29.6263C144.899 28.1088 143.838 27.8812 142.776 27.8812H141.601V31.58ZM141.601 36.5686H143.061C144.274 36.5686 145.202 36.0944 145.202 34.3873C145.202 32.6991 144.084 32.3577 143.061 32.3577H141.601V36.5686Z" fill="white"/>
<path d="M147.855 27.1035H152.556V27.8812H148.727V31.4662H152.139V32.2439H148.727V36.5496H152.556V37.3273H147.855V27.1035Z" fill="white"/>
<path d="M154.983 31.4662H158.944V27.1035H159.835V37.3653H158.944V32.2628H154.983V37.3653H154.092V27.1035H154.983V31.4662Z" fill="white"/>
<path d="M162.696 31.4662H166.658V27.1035H167.549V37.3653H166.658V32.2628H162.696V37.3653H161.806V27.1035H162.696V31.4662Z" fill="white"/>
<path d="M170.486 31.4657H172.04C173.898 31.4657 174.864 32.6038 174.864 34.4437C174.864 36.5491 173.67 37.3458 172.097 37.3458H169.614V27.084H170.505V31.4657H170.486ZM170.486 36.5681H171.832C173.234 36.5681 173.974 35.9232 173.974 34.4816C173.974 32.8693 173.121 32.2623 171.661 32.2623H170.467V36.5681H170.486ZM177.101 37.3458H176.21V27.084H177.101V37.3458Z" fill="white"/>
<path d="M179.982 35.9042H180.02L183.792 27.103H184.891V37.3648H184V28.6015H183.962L180.172 37.3648H179.11V27.103H180.001V35.9042H179.982ZM180.665 24.6371C180.778 25.4148 181.328 25.7942 181.991 25.7942C182.655 25.7942 183.185 25.4148 183.337 24.6371H183.811C183.697 25.8132 182.939 26.4201 181.915 26.4201C180.911 26.4201 180.267 25.7373 180.153 24.6182H180.665V24.6371Z" fill="white"/>
<path d="M192.018 31.4655H195.979V27.1028H196.87V37.3645H195.979V32.2621H192.018V37.3645H191.127V27.1028H192.018V31.4655Z" fill="white"/>
<path d="M201.836 27.1025L204.584 37.3643H203.693L202.878 34.1966H199.77L198.936 37.3643H198.083L200.812 27.1025H201.836ZM202.689 33.4L201.343 28.2217H201.324L199.978 33.4H202.689Z" fill="white"/>
<path d="M205.588 27.103L208.128 34.1022L210.459 27.103H211.407L208.242 36.0369C207.9 37.0043 207.313 37.4596 206.687 37.4596C206.384 37.4596 206.157 37.4406 205.948 37.3647V36.587C206.024 36.606 206.233 36.6629 206.517 36.6629C206.801 36.6629 207.161 36.587 207.37 35.999L207.654 35.2213L204.603 27.084H205.588V27.103Z" fill="white"/>
<path d="M213.378 27.1025V30.3271C213.378 31.3893 213.814 31.6549 214.894 31.6549C215.634 31.6549 216.354 31.598 216.941 31.4842V27.1215H217.832V37.3833H216.941V32.2998C216.221 32.4326 215.653 32.4705 214.629 32.4705C212.999 32.4705 212.487 31.579 212.487 30.3271V27.1405H213.378V27.1025Z" fill="white"/>
<path d="M220.733 31.4652H224.694V27.1025H225.585V37.3643H224.694V32.2619H220.733V37.3643H219.842V27.1025H220.733V31.4652Z" fill="white"/>
<path d="M228.483 31.4666H230.037C231.895 31.4666 232.861 32.6047 232.861 34.4446C232.861 36.5501 231.667 37.3467 230.094 37.3467H227.611V27.085H228.502V31.4666H228.483ZM228.483 36.569H229.829C231.231 36.569 231.971 35.9241 231.971 34.4825C231.971 32.8702 231.118 32.2633 229.658 32.2633H228.464V36.569H228.483ZM235.079 37.3467H234.188V27.085H235.079V37.3467Z" fill="white"/>
<path d="M237.979 35.9048H238.017L241.788 27.1036H242.888V37.3653H242.016V28.602H241.978L238.187 37.3653H237.126V27.1036H237.998V35.9048H237.979ZM238.661 24.6377C238.775 25.4154 239.306 25.7948 239.988 25.7948C240.651 25.7948 241.182 25.4154 241.334 24.6377H241.807C241.694 25.8137 240.955 26.4397 239.931 26.4397C238.927 26.4397 238.282 25.7568 238.168 24.6377H238.661Z" fill="white"/>
<path d="M249.977 36.569H253.957V27.1039H254.829V36.569H255.587V39.5281H254.734V37.3467H249.086V27.085H249.977V36.569Z" fill="white"/>
<path d="M257.065 27.1028H261.785V27.8805H257.956V31.4655H261.368V32.2431H257.956V36.5489H261.785V37.3266H257.065V27.1028Z" fill="white"/>
<path d="M264.192 31.4652H268.153V27.1025H269.025V37.3643H268.153V32.2619H264.192V37.3643H263.301V27.1025H264.173V31.4652H264.192Z" fill="white"/>
<path d="M273.555 37.3453H272.683V27.8802H270.371V27.1025H275.887V27.8802H273.574V37.3453H273.555Z" fill="white"/>
<path d="M278.104 37.3457H277.213V27.084H279.525C281.098 27.084 282.463 27.7479 282.463 29.8533C282.463 31.6932 281.44 32.6985 279.582 32.6985H278.066V37.3457H278.104ZM278.104 31.9209H279.26C280.719 31.9209 281.61 31.5036 281.61 29.8913C281.61 28.3928 280.814 27.8617 279.411 27.8617H278.123V31.9209H278.104Z" fill="white"/>
<path d="M294.744 27.1028V36.5679H295.465V39.5269H294.612V37.3456H288.812V39.5269H287.959V36.5679H288.603C289.456 35.1073 289.76 33.8554 289.76 30.7067V27.1028H294.744ZM290.631 27.8805V30.9343C290.631 33.2674 290.347 35.2401 289.551 36.5489H293.853V27.8615H290.631V27.8805Z" fill="white"/>
<path d="M297.057 27.1025H301.776V27.8802H297.947V31.4652H301.359V32.2429H297.947V36.5487H301.776V37.3264H297.057V27.1025Z" fill="white"/>
<path d="M304.164 37.3457H303.292V27.084H305.604C307.177 27.084 308.542 27.7479 308.542 29.8533C308.542 31.6932 307.519 32.6985 305.661 32.6985H304.145V37.3457H304.164ZM304.164 31.9209H305.32C306.779 31.9209 307.67 31.5036 307.67 29.8913C307.67 28.3928 306.874 27.8617 305.472 27.8617H304.183V31.9209H304.164Z" fill="white"/>
<path d="M311.746 27.1035L314.172 36.0375H314.191L316.674 27.1035H318.115V37.3653H317.243V27.995H317.205L314.665 37.3653H313.718L311.159 27.995H311.14V37.3653H310.249V27.1035H311.746Z" fill="white"/>
<path d="M323.138 27.1035L325.886 37.3653H324.995L324.18 34.1976H321.072L320.238 37.3653H319.385L322.114 27.1035H323.138ZM323.99 33.4009L322.645 28.2226H322.607L321.261 33.4009H323.99Z" fill="white"/>
<path d="M328.918 37.3463H328.027V27.8812H325.715V27.1035H331.23V27.8812H328.918V37.3463Z" fill="white"/>
<path d="M332.425 32.2055C332.425 29.7965 332.709 26.8564 335.419 26.8564C338.244 26.8564 338.433 29.7965 338.433 32.2055C338.433 34.8041 338.225 37.5924 335.419 37.5924C332.709 37.5924 332.425 34.842 332.425 32.2055ZM337.561 32.2055C337.561 30.1569 337.372 27.6341 335.419 27.6341C333.505 27.6341 333.297 29.9862 333.297 32.2055C333.297 34.4627 333.505 36.7957 335.419 36.7957C337.334 36.8147 337.561 34.6334 337.561 32.2055Z" fill="white"/>
<path d="M340.29 27.1035H342.716C344.213 27.1035 345.37 27.8622 345.37 29.6073C345.37 30.6316 344.99 31.561 343.967 31.9404C345.161 32.2628 345.654 33.1923 345.654 34.4062C345.654 37.0049 343.853 37.3463 342.545 37.3463H340.309V27.1035H340.29ZM341.181 31.58H342.451C343.493 31.58 344.479 31.2575 344.479 29.6263C344.479 28.1088 343.417 27.8812 342.356 27.8812H341.181V31.58ZM341.181 36.5686H342.64C343.853 36.5686 344.782 36.0944 344.782 34.3873C344.782 32.6991 343.664 32.3577 342.64 32.3577H341.181V36.5686Z" fill="white"/>
<path d="M347.436 27.1035H352.136V27.8812H348.307V31.4662H351.719V32.2439H348.307V36.5496H352.136V37.3273H347.436V27.1035Z" fill="white"/>
<path d="M354.544 31.4662H358.505V27.1035H359.396V37.3653H358.505V32.2628H354.544V37.3653H353.672V27.1035H354.544V31.4662Z" fill="white"/>
<path d="M361.385 27.1035H366.085V27.8812H362.257V31.4662H365.668V32.2439H362.257V36.5496H366.085V37.3273H361.385V27.1035Z" fill="white"/>
<path d="M368.512 37.3458H367.641V27.084H369.953C371.526 27.084 372.891 27.7479 372.891 29.8534C372.891 31.6933 371.867 32.6986 370.01 32.6986H368.494V37.3458H368.512ZM368.512 31.9209H369.669C371.128 31.9209 372.019 31.5036 372.019 29.8913C372.019 28.3928 371.223 27.8617 369.82 27.8617H368.531V31.9209H368.512Z" fill="white"/>
<path d="M374.426 32.2055C374.426 29.7965 374.71 26.8564 377.42 26.8564C380.244 26.8564 380.434 29.7965 380.434 32.2055C380.434 34.8041 380.226 37.5924 377.42 37.5924C374.71 37.5924 374.426 34.842 374.426 32.2055ZM379.562 32.2055C379.562 30.1569 379.373 27.6341 377.42 27.6341C375.506 27.6341 375.298 29.9862 375.298 32.2055C375.298 34.4627 375.506 36.7957 377.42 36.7957C379.354 36.8147 379.562 34.6334 379.562 32.2055Z" fill="white"/>
<path d="M388.413 27.1035V37.3653H387.542V27.9002H384.13V32.6043C384.13 35.753 383.694 37.4601 382.348 37.4601C382.045 37.4601 381.818 37.4411 381.571 37.3842V36.6066C381.666 36.6255 381.931 36.6824 382.216 36.6824C382.974 36.6824 383.239 35.1081 383.239 32.3198V27.1225H388.413V27.1035Z" fill="white"/>
<path d="M390.252 32.2055C390.252 29.7965 390.536 26.8564 393.247 26.8564C396.071 26.8564 396.26 29.7965 396.26 32.2055C396.26 34.8041 396.052 37.5924 393.247 37.5924C390.536 37.5924 390.252 34.842 390.252 32.2055ZM395.388 32.2055C395.388 30.1569 395.199 27.6341 393.247 27.6341C391.332 27.6341 391.124 29.9862 391.124 32.2055C391.124 34.4627 391.332 36.7957 393.247 36.7957C395.18 36.8147 395.388 34.6334 395.388 32.2055Z" fill="white"/>
<path d="M402.837 27.103V27.8807H399.008V37.3458H398.117V27.084H402.837V27.103Z" fill="white"/>
<path d="M405.262 35.9047H405.3L409.072 27.1035H410.171V37.3653H409.3V28.602H409.243L405.452 37.3653H404.391V27.1035H405.262V35.9047Z" fill="white"/>
<path d="M413.053 35.9047H413.071L416.843 27.1035H417.942V37.3653H417.052V28.602H417.033L413.242 37.3653H412.181V27.1035H413.071V35.9047H413.053Z" fill="white"/>
<path d="M70.7156 54.854H70.7535L74.5252 46.0527H75.6245V56.3145H74.7337V47.5512H74.6958L70.9051 56.3145H69.8438V46.0527H70.7346V54.854H70.7156Z" fill="white"/>
<path d="M82.7512 51.1931L86.466 46.0527H87.4895L84.4759 50.2068L87.6601 56.3145H86.6935L83.8884 50.9275L82.7512 52.426V56.3145H81.8604V46.0527H82.7512V51.1931Z" fill="white"/>
<path d="M88.3799 51.1742C88.3799 48.7653 88.6642 45.8252 91.3745 45.8252C94.1986 45.8252 94.3881 48.7653 94.3881 51.1742C94.3881 53.7728 94.1796 56.5612 91.3745 56.5612C88.6642 56.5612 88.3799 53.8108 88.3799 51.1742ZM93.5163 51.1742C93.5163 49.1256 93.3267 46.6029 91.3745 46.6029C89.4602 46.6029 89.2517 48.9549 89.2517 51.1742C89.2517 53.4314 89.4602 55.7645 91.3745 55.7645C93.2888 55.7645 93.5163 53.6021 93.5163 51.1742Z" fill="white"/>
<path d="M101.931 52.8434C101.931 54.8351 101.097 56.5612 99.0505 56.5612C96.3401 56.5612 96.0938 53.8487 96.0938 50.9087C96.0938 48.8032 96.3591 45.8252 99.0884 45.8252C100.927 45.8252 101.893 47.2857 101.893 49.0118H100.984C100.908 47.7979 100.434 46.6029 99.0694 46.6029C97.193 46.6029 96.9846 49.1256 96.9846 51.0983C96.9846 53.3555 97.1741 55.7645 99.1642 55.7645C100.68 55.7645 101.079 54.0574 101.079 52.8244H101.931V52.8434Z" fill="white"/>
<path d="M105.268 46.0527L107.694 54.9867H107.732L110.215 46.0527H111.674V56.3145H110.783V46.9442H110.745L108.206 56.3145H107.258L104.699 46.9442H104.661V56.3145H103.771V46.0527H105.268Z" fill="white"/>
<path d="M113.683 46.0528H118.383V46.8305H114.554V50.4155H117.966V51.1932H114.554V55.499H118.383V56.2767H113.683V46.0528Z" fill="white"/>
<path d="M122.458 56.3151H121.567V46.85H119.255V46.0723H124.77V46.85H122.458V56.3151Z" fill="white"/>
<path d="M125.965 51.1742C125.965 48.7653 126.249 45.8252 128.959 45.8252C131.784 45.8252 131.973 48.7653 131.973 51.1742C131.973 53.7728 131.765 56.5612 128.959 56.5612C126.249 56.5612 125.965 53.8108 125.965 51.1742ZM131.101 51.1742C131.101 49.1256 130.912 46.6029 128.959 46.6029C127.045 46.6029 126.837 48.9549 126.837 51.1742C126.837 53.4314 127.045 55.7645 128.959 55.7645C130.893 55.7645 131.101 53.6021 131.101 51.1742Z" fill="white"/>
<path d="M139.971 46.0528V56.3146H139.08V46.8495H135.668V51.5536C135.668 54.7023 135.232 56.4094 133.886 56.4094C133.564 56.4094 133.356 56.3905 133.109 56.3336V55.5559C133.204 55.5748 133.469 55.6317 133.754 55.6317C134.512 55.6317 134.777 54.0574 134.777 51.2691V46.0718H139.971V46.0528Z" fill="white"/>
<path d="M141.81 51.1742C141.81 48.7653 142.094 45.8252 144.804 45.8252C147.628 45.8252 147.818 48.7653 147.818 51.1742C147.818 53.7728 147.609 56.5612 144.804 56.5612C142.094 56.5612 141.81 53.8108 141.81 51.1742ZM146.946 51.1742C146.946 49.1256 146.756 46.6029 144.804 46.6029C142.89 46.6029 142.681 48.9549 142.681 51.1742C142.681 53.4314 142.89 55.7645 144.804 55.7645C146.737 55.7645 146.946 53.6021 146.946 51.1742Z" fill="white"/>
<path d="M154.394 46.0531V46.8308H150.566V56.2959H149.675V46.0342H154.394V46.0531Z" fill="white"/>
<path d="M156.802 54.854H156.839L160.611 46.0528H161.71V56.3146H160.82V47.5513H160.782L156.991 56.3146H155.93V46.0528H156.82V54.854H156.802Z" fill="white"/>
<path d="M164.572 54.854H164.61L168.382 46.0528H169.481V56.3146H168.59V47.5513H168.552L164.762 56.3146H163.7V46.0528H164.591V54.854H164.572Z" fill="white"/>
<path d="M173.67 52.1222V53.0896L171.756 54.5312V53.6966L173.139 52.6154L171.756 51.4963V50.6807L173.67 52.1222ZM176.21 52.1222V53.0896L174.296 54.5312V53.6966L175.679 52.6154L174.296 51.4963V50.6807L176.21 52.1222Z" fill="white"/>
<path d="M184.076 46.0527L186.502 54.9867H186.54L189.023 46.0527H190.463V56.3145H189.572V46.9442H189.534L186.995 56.3145H186.047L183.488 46.9442H183.45V56.3145H182.56V46.0527H184.076Z" fill="white"/>
<path d="M193.345 54.854H193.382L197.154 46.0527H198.253V56.3145H197.363V47.5512H197.325L193.534 56.3145H192.473V46.0527H193.363V54.854H193.345Z" fill="white"/>
<path d="M201.134 50.434H205.095V46.0713H205.986V56.333H205.095V51.2306H201.134V56.333H200.243V46.0713H201.134V50.434Z" fill="white"/>
<path d="M207.9 48.4238C207.9 47.3616 208.62 45.8252 210.516 45.8252C212.165 45.8252 213.055 46.9443 213.055 48.5945C213.055 49.8275 212.354 50.6431 211.539 50.9087C212.487 51.1363 213.34 51.9709 213.34 53.5642C213.34 55.7835 211.937 56.5612 210.497 56.5612C208.696 56.5612 207.635 55.3851 207.635 53.4124H208.526C208.601 55.2144 209.378 55.7835 210.497 55.7835C211.786 55.7835 212.468 55.0627 212.468 53.7159C212.468 52.0278 211.463 51.2311 210.231 51.2311H209.625V50.4534H210.288C211.539 50.4534 212.184 49.8085 212.184 48.5376C212.184 47.3047 211.388 46.6219 210.478 46.6219C209.284 46.6219 208.848 47.5703 208.753 48.4428H207.9V48.4238Z" fill="white"/>
<path d="M221.168 46.0527V55.5178H221.888V58.4769H221.035V56.2955H215.236V58.4769H214.383V55.5178H215.027C215.88 54.0573 216.183 52.8054 216.183 49.6567V46.0527H221.168ZM217.055 46.8494V49.9033C217.055 52.2364 216.771 54.209 215.975 55.5178H220.277V46.8304H217.055V46.8494Z" fill="white"/>
<path d="M224.353 56.3145H223.462V46.0527H225.774C227.347 46.0527 228.712 46.7166 228.712 48.8221C228.712 50.662 227.689 51.6673 225.831 51.6673H224.315V56.3145H224.353ZM224.353 50.8896H225.509C226.968 50.8896 227.859 50.4723 227.859 48.86C227.859 47.3615 227.063 46.8304 225.661 46.8304H224.372V50.8896H224.353Z" fill="white"/>
<path d="M232.711 46.0527L235.459 56.3145H234.568L233.753 53.1468H230.645L229.811 56.3145H228.958L231.687 46.0527H232.711ZM233.564 52.3691L232.218 47.1908H232.18L230.834 52.3691H233.564Z" fill="white"/>
<path d="M236.672 46.0527H239.098C240.595 46.0527 241.751 46.8115 241.751 48.5565C241.751 49.5808 241.372 50.5103 240.349 50.8896C241.543 51.2121 242.036 52.1415 242.036 53.3555C242.036 55.9541 240.235 56.2955 238.927 56.2955H236.691V46.0527H236.672ZM237.544 50.5482H238.814C239.875 50.5482 240.842 50.2257 240.842 48.5945C240.842 47.077 239.78 46.8494 238.719 46.8494H237.544V50.5482ZM237.544 55.5368H239.003C240.216 55.5368 241.145 55.0626 241.145 53.3555C241.145 51.6673 240.027 51.3259 239.003 51.3259H237.544V55.5368Z" fill="white"/>
<path d="M246.793 46.0527L249.541 56.3145H248.65L247.835 53.1468H244.727L243.893 56.3145H243.04L245.769 46.0527H246.793ZM247.646 52.3691L246.3 47.1908H246.281L244.935 52.3691H247.646Z" fill="white"/>
<path d="M255.872 56.3145H255V46.0527H257.312C258.885 46.0527 260.25 46.7166 260.25 48.8221C260.25 50.662 259.227 51.6673 257.369 51.6673H255.853V56.3145H255.872ZM255.872 50.8896H257.028C258.487 50.8896 259.378 50.4723 259.378 48.86C259.378 47.3615 258.582 46.8304 257.18 46.8304H255.891V50.8896H255.872Z" fill="white"/>
<path d="M261.804 51.1742C261.804 48.7653 262.088 45.8252 264.798 45.8252C267.622 45.8252 267.812 48.7653 267.812 51.1742C267.812 53.7728 267.603 56.5612 264.798 56.5612C262.088 56.5612 261.804 53.8108 261.804 51.1742ZM266.94 51.1742C266.94 49.1256 266.751 46.6029 264.798 46.6029C262.884 46.6029 262.676 48.9549 262.676 51.1742C262.676 53.4314 262.884 55.7645 264.798 55.7645C266.732 55.7645 266.94 53.6021 266.94 51.1742Z" fill="white"/>
<path d="M275.375 52.8434C275.375 54.8351 274.541 56.5612 272.494 56.5612C269.784 56.5612 269.537 53.8487 269.537 50.9087C269.537 48.8032 269.802 45.8252 272.532 45.8252C274.37 45.8252 275.337 47.2857 275.337 49.0118H274.427C274.351 47.7979 273.877 46.6029 272.513 46.6029C270.636 46.6029 270.428 49.1256 270.428 51.0983C270.428 53.3555 270.636 55.7645 272.608 55.7645C274.124 55.7645 274.522 54.0574 274.522 52.8244H275.375V52.8434Z" fill="white"/>
<path d="M282.918 52.8434C282.918 54.8351 282.084 56.5612 280.037 56.5612C277.326 56.5612 277.08 53.8487 277.08 50.9087C277.08 48.8032 277.345 45.8252 280.075 45.8252C281.913 45.8252 282.88 47.2857 282.88 49.0118H281.97C281.894 47.7979 281.42 46.6029 280.056 46.6029C278.179 46.6029 277.971 49.1256 277.971 51.0983C277.971 53.3555 278.16 55.7645 280.151 55.7645C281.667 55.7645 282.065 54.0574 282.065 52.8244H282.918V52.8434Z" fill="white"/>
<path d="M285.628 54.854H285.666L289.438 46.0528H290.537V56.3146H289.665V47.5513H289.627L285.837 56.3146H284.775V46.0528H285.647V54.854H285.628Z" fill="white"/>
<path d="M293.418 54.854H293.437L297.208 46.0528H298.308V56.3146H297.417V47.5513H297.398L293.607 56.3146H292.546V46.0528H293.437V54.854H293.418Z" fill="white"/>
<path d="M31.274 66.0634C30.5537 66.0634 29.8335 66.0255 29.1133 65.9686C31.3308 64.1097 32.9229 62.175 34.4771 60.2971C36.6567 57.6605 38.9122 54.9291 42.9114 52.3305C49.1849 48.2523 56.0461 46.9246 57.8466 46.6211C57.4486 48.48 55.3827 55.8396 46.4367 61.587C44.3518 62.9527 38.6848 66.0634 31.274 66.0634Z" fill="#ADB8BF"/>
<path d="M38.0205 54.1133C40.7688 49.1247 42.4367 44.0602 42.9484 39.0337C47.4024 34.2537 51.8944 31.2947 57.8268 29.3789C57.2393 32.7932 55.9883 37.3076 54.889 39.9252C54.2446 41.4616 53.259 43.1118 52.3114 44.7241C51.8375 45.5398 51.3637 46.3364 50.9657 47.0572C46.9097 47.8349 42.5883 50.1869 38.0205 54.1133Z" fill="#ADB8BF"/>
<path d="M27.3875 65.5322C23.1988 59.1969 21.1897 51.6286 20.242 46.3365C19.1048 40.0201 19.5597 33.6847 21.6067 27.0079C23.521 20.7864 32.1827 6.31371 33.8885 3.52539C35.4616 6.2568 43.043 20.3501 41.9437 34.3107C40.9581 46.9814 35.3858 58.9123 27.3875 65.5322Z" fill="#ADB8BF"/>
<path d="M18.044 41.9363C16.9826 30.783 22.3653 20.4644 23.4836 18.8331C17.608 9.27316 10.311 2.14114 7.06993 0.415039C6.89935 2.5205 5.80005 7.45222 4.79552 11.8528C4.3975 13.6358 4.01843 15.2861 3.77204 16.5L3.08971 19.6867C1.57344 26.7049 0.265656 32.7747 1.32705 40.5137C2.90018 52.1222 11.0122 60.8096 24.1469 64.9826L25.4358 65.343C21.6072 59.1214 18.8589 50.434 18.044 41.9363ZM21.5314 63.1806C5.28831 56.2762 1.70612 32.5281 5.28831 15.7223C5.38308 15.324 0.549959 53.4499 21.8157 62.934C22.1379 63.0668 22.0052 63.3703 21.5314 63.1806Z" fill="#ADB8BF"/>
<path d="M42.3232 21.3746C42.3232 21.3746 43.4794 18.4914 47.4028 16.6515C50.2837 15.3048 51.5725 15.3617 51.5725 15.3617C51.6483 19.6864 51.8189 22.4558 50.9849 26.2873C50.2647 29.6067 48.7295 32.9072 43.3278 36.2835C43.3088 36.2835 44.3513 29.7775 42.3232 21.3746Z" fill="#ADB8BF"/>
</g>
<defs>
<clipPath id="clip0_854_1232">
<rect width="418" height="67" fill="white"/>
</clipPath>
</defs>
</svg>
