<svg width="32" height="32" viewBox="0 0 32 32" fill="none" xmlns="http://www.w3.org/2000/svg">
<g clip-path="url(#clip0_782_1799)">
<path d="M28.1905 0H3.80952C1.70667 0 0 1.70667 0 3.80952V28.1905C0 30.2933 1.70667 32 3.80952 32H28.1905C30.2933 32 32 30.2933 32 28.1905V3.80952C32 1.70667 30.2933 0 28.1905 0ZM25.6914 22.0952L22.8495 22.0876C22.8495 22.0876 22.7886 22.0952 22.6895 22.0952C22.461 22.0952 21.9886 22.0343 21.4324 21.6533C20.4343 20.96 19.4819 19.2381 18.7276 19.2381C18.6743 19.2381 18.6286 19.2457 18.5829 19.261C17.9276 19.4667 17.7295 20.1219 17.7295 20.9219C17.7295 21.2038 17.5314 21.3333 16.9981 21.3333H15.5276C13.8819 21.3333 12.2895 21.2952 10.499 19.3371C7.86286 16.4495 5.39429 11.3143 5.39429 11.3143C5.39429 11.3143 5.25714 11.0171 5.40191 10.8419C5.53905 10.6819 5.85905 10.6667 5.98095 10.6667C6.01143 10.6667 6.02667 10.6667 6.02667 10.6667H9.07429C9.07429 10.6667 9.35619 10.72 9.5619 10.8724C9.73714 11.0019 9.82857 11.2381 9.82857 11.2381C9.82857 11.2381 10.3467 12.2438 10.9943 13.379C12.0838 15.2533 12.6705 15.8781 13.0895 15.8781C13.1581 15.8781 13.2267 15.8629 13.2952 15.8248C13.92 15.4819 13.7371 12.7086 13.7371 12.7086C13.7371 12.7086 13.7448 11.7029 13.4171 11.261C13.1657 10.9105 12.6857 10.8114 12.4724 10.781C12.3048 10.7581 12.579 10.3619 12.9448 10.179C13.4171 9.95048 14.2019 9.90476 15.1467 9.90476H15.6038C16.4952 9.92 16.5181 10.0114 16.8686 10.0952C17.92 10.3467 17.5619 11.3295 17.5619 13.6838C17.5619 14.4381 17.4248 15.4971 17.9657 15.8552C18.0038 15.8781 18.0571 15.8933 18.1257 15.8933C18.4762 15.8933 19.2305 15.4438 20.4343 13.4095C21.1048 12.2514 21.6229 11.101 21.6229 11.101C21.6229 11.101 21.7371 10.8952 21.9124 10.7886C22.08 10.6895 22.08 10.6895 22.301 10.6895H22.3238C22.5676 10.6895 24.9905 10.6667 25.5238 10.6667H25.5848C26.0952 10.6667 26.56 10.6743 26.6438 10.9867C26.7657 11.459 26.2705 12.3048 24.9676 14.0571C22.819 16.9295 22.5752 16.7162 24.3581 18.3771C26.0648 19.9619 26.4152 20.7314 26.4762 20.8305C27.1848 22.0038 25.6914 22.0952 25.6914 22.0952Z" fill="white"/>
</g>
<defs>
<clipPath id="clip0_782_1799">
<rect width="32" height="32" fill="white"/>
</clipPath>
</defs>
</svg>
